<mxfile host="65bd71144e">
    <diagram id="A7GXwEin221Bo7ZZ9O-L" name="Page-1">
        <mxGraphModel dx="4696" dy="3626" grid="1" gridSize="10" guides="1" tooltips="1" connect="1" arrows="1" fold="1" page="1" pageScale="1" pageWidth="850" pageHeight="1100" math="0" shadow="0">
            <root>
                <mxCell id="0"/>
                <mxCell id="1" parent="0"/>
                <mxCell id="747" value="boot-tasks ErklÃ¤rung" style="rounded=0;whiteSpace=wrap;html=1;fillColor=#2E2738;verticalAlign=top;" vertex="1" parent="1">
                    <mxGeometry x="-1680" y="110" width="790" height="890" as="geometry"/>
                </mxCell>
                <mxCell id="625" style="edgeStyle=orthogonalEdgeStyle;html=1;exitX=0.5;exitY=0;exitDx=0;exitDy=0;entryX=0.5;entryY=0;entryDx=0;entryDy=0;dashed=1;dashPattern=1 1;strokeWidth=2;endArrow=none;endFill=0;" edge="1" parent="1" source="19" target="594">
                    <mxGeometry relative="1" as="geometry">
                        <Array as="points">
                            <mxPoint x="-360" y="-380"/>
                            <mxPoint x="215" y="-380"/>
                        </Array>
                    </mxGeometry>
                </mxCell>
                <mxCell id="19" value="Groups UI" style="rounded=0;whiteSpace=wrap;html=1;fillColor=#cdeb8b;strokeColor=#36393d;verticalAlign=top;fontStyle=1;fontColor=#000000;" parent="1" vertex="1">
                    <mxGeometry x="-690" y="-350" width="660" height="460" as="geometry"/>
                </mxCell>
                <mxCell id="22" value="List: All Devices" style="rounded=0;whiteSpace=wrap;html=1;strokeColor=#2D7600;fontColor=#ffffff;fillColor=#60a917;verticalAlign=top;" parent="1" vertex="1">
                    <mxGeometry x="-680" y="-290" width="190" height="390" as="geometry"/>
                </mxCell>
                <mxCell id="25" value="Filter: all / new /&amp;nbsp;&lt;br&gt;online /&amp;nbsp; offline /&amp;nbsp; configured / non configured / last online / tags / network" style="rounded=0;whiteSpace=wrap;html=1;strokeColor=#001DBC;fontColor=#ffffff;fillColor=#0050ef;" parent="1" vertex="1">
                    <mxGeometry x="-670" y="-190" width="170" height="60" as="geometry"/>
                </mxCell>
                <mxCell id="27" value="Tree: Groups" style="rounded=0;whiteSpace=wrap;html=1;strokeColor=#005700;fontColor=#ffffff;fillColor=#008a00;verticalAlign=top;" parent="1" vertex="1">
                    <mxGeometry x="-230" y="-290" width="190" height="190" as="geometry"/>
                </mxCell>
                <mxCell id="28" value="Filter: all / tags /&amp;nbsp; ..." style="rounded=0;whiteSpace=wrap;html=1;strokeColor=#001DBC;fontColor=#ffffff;fillColor=#0050ef;" parent="1" vertex="1">
                    <mxGeometry x="-220" y="-260" width="170" height="30" as="geometry"/>
                </mxCell>
                <mxCell id="29" value="List: Devices in Group" style="rounded=0;whiteSpace=wrap;html=1;strokeColor=#2D7600;fontColor=#ffffff;fillColor=#60a917;verticalAlign=top;" parent="1" vertex="1">
                    <mxGeometry x="-450" y="-290" width="190" height="390" as="geometry"/>
                </mxCell>
                <mxCell id="31" value="Formular: Group details" style="rounded=0;whiteSpace=wrap;html=1;strokeColor=#A50040;fontColor=#ffffff;fillColor=#d80073;verticalAlign=top;" parent="1" vertex="1">
                    <mxGeometry x="-230" y="-90" width="190" height="190" as="geometry"/>
                </mxCell>
                <mxCell id="34" value="Action Buttons: Create group, delete group, edit group , save changes, discard changes" style="rounded=0;whiteSpace=wrap;html=1;strokeColor=#006EAF;fontColor=#ffffff;fillColor=#1ba1e2;" parent="1" vertex="1">
                    <mxGeometry x="-680" y="-320" width="640" height="20" as="geometry"/>
                </mxCell>
                <mxCell id="44" value="&lt;br&gt;&lt;span style=&quot;color: rgb(255, 255, 255); font-family: Helvetica; font-size: 12px; font-style: normal; font-variant-ligatures: normal; font-variant-caps: normal; font-weight: 400; letter-spacing: normal; orphans: 2; text-align: center; text-indent: 0px; text-transform: none; widows: 2; word-spacing: 0px; -webkit-text-stroke-width: 0px; background-color: rgb(27, 161, 226); text-decoration-thickness: initial; text-decoration-style: initial; text-decoration-color: initial; float: none; display: inline !important;&quot;&gt;move to group&lt;/span&gt;&lt;br&gt;" style="triangle;whiteSpace=wrap;html=1;strokeColor=#006EAF;fontColor=#ffffff;fillColor=#1ba1e2;horizontal=0;verticalAlign=middle;labelPosition=center;verticalLabelPosition=middle;align=center;spacing=2;spacingBottom=23;" parent="1" vertex="1">
                    <mxGeometry x="-485" y="-270" width="30" height="350" as="geometry"/>
                </mxCell>
                <mxCell id="58" value="Columns: MAC, IP, name, tags&amp;nbsp;&amp;nbsp;" style="rounded=0;whiteSpace=wrap;html=1;strokeColor=#3700CC;fontColor=#ffffff;fillColor=#6a00ff;" parent="1" vertex="1">
                    <mxGeometry x="-440" y="-260" width="170" height="60" as="geometry"/>
                </mxCell>
                <mxCell id="63" value="Actions: set/delete name and tags; move to group" style="rounded=0;whiteSpace=wrap;html=1;strokeColor=#6F0000;fontColor=#ffffff;fillColor=#a20025;" parent="1" vertex="1">
                    <mxGeometry x="-670" y="-120" width="170" height="60" as="geometry"/>
                </mxCell>
                <mxCell id="64" value="Actions: create/delete/edit group" style="rounded=0;whiteSpace=wrap;html=1;strokeColor=#6F0000;fontColor=#ffffff;fillColor=#a20025;" parent="1" vertex="1">
                    <mxGeometry x="-220" y="-220" width="170" height="60" as="geometry"/>
                </mxCell>
                <mxCell id="65" value="Actions: set/delete name and tags; remove from group" style="rounded=0;whiteSpace=wrap;html=1;strokeColor=#6F0000;fontColor=#ffffff;fillColor=#a20025;" parent="1" vertex="1">
                    <mxGeometry x="-440" y="-190" width="170" height="60" as="geometry"/>
                </mxCell>
                <mxCell id="66" value="Dashboard UI" style="rounded=0;whiteSpace=wrap;html=1;fillColor=#cdeb8b;strokeColor=#36393d;verticalAlign=top;fontStyle=1;fontColor=#000000;" parent="1" vertex="1">
                    <mxGeometry x="-685" y="-1590" width="660" height="460" as="geometry"/>
                </mxCell>
                <mxCell id="67" value="List: All Servers" style="rounded=0;whiteSpace=wrap;html=1;strokeColor=#2D7600;fontColor=#ffffff;fillColor=#60a917;verticalAlign=top;" parent="1" vertex="1">
                    <mxGeometry x="-675" y="-1530" width="190" height="390" as="geometry"/>
                </mxCell>
                <mxCell id="68" value="Filter: all / new /&amp;nbsp;&lt;br&gt;online /&amp;nbsp; offline /&amp;nbsp; configured / non configured / last online / tags / network" style="rounded=0;whiteSpace=wrap;html=1;strokeColor=#001DBC;fontColor=#ffffff;fillColor=#0050ef;" parent="1" vertex="1">
                    <mxGeometry x="-665" y="-1430" width="170" height="60" as="geometry"/>
                </mxCell>
                <mxCell id="73" value="Columns: MAC, IP, name, tags&amp;nbsp;&amp;nbsp;" style="rounded=0;whiteSpace=wrap;html=1;strokeColor=#3700CC;fontColor=#ffffff;fillColor=#6a00ff;" parent="1" vertex="1">
                    <mxGeometry x="-665" y="-1500" width="170" height="60" as="geometry"/>
                </mxCell>
                <mxCell id="74" value="Action Buttons:&amp;nbsp;" style="rounded=0;whiteSpace=wrap;html=1;strokeColor=#006EAF;fontColor=#ffffff;fillColor=#1ba1e2;" parent="1" vertex="1">
                    <mxGeometry x="-675" y="-1560" width="640" height="20" as="geometry"/>
                </mxCell>
                <mxCell id="80" value="List: next Schedules" style="rounded=0;whiteSpace=wrap;html=1;strokeColor=#2D7600;fontColor=#ffffff;fillColor=#60a917;verticalAlign=top;" parent="1" vertex="1">
                    <mxGeometry x="-305" y="-1530" width="130" height="190" as="geometry"/>
                </mxCell>
                <mxCell id="81" value="List: Last Triggers" style="rounded=0;whiteSpace=wrap;html=1;strokeColor=#2D7600;fontColor=#ffffff;fillColor=#60a917;verticalAlign=top;" parent="1" vertex="1">
                    <mxGeometry x="-165" y="-1330" width="130" height="190" as="geometry"/>
                </mxCell>
                <mxCell id="82" value="List: Last Responses" style="rounded=0;whiteSpace=wrap;html=1;strokeColor=#2D7600;fontColor=#ffffff;fillColor=#60a917;verticalAlign=top;" parent="1" vertex="1">
                    <mxGeometry x="-165" y="-1530" width="130" height="190" as="geometry"/>
                </mxCell>
                <mxCell id="83" value="List: Server errors" style="rounded=0;whiteSpace=wrap;html=1;strokeColor=#2D7600;fontColor=#ffffff;fillColor=#60a917;verticalAlign=top;" parent="1" vertex="1">
                    <mxGeometry x="-305" y="-1330" width="130" height="190" as="geometry"/>
                </mxCell>
                <mxCell id="84" value="Chart: group targets reached" style="rounded=0;whiteSpace=wrap;html=1;strokeColor=#2D7600;fontColor=#ffffff;fillColor=#60a917;verticalAlign=top;" parent="1" vertex="1">
                    <mxGeometry x="-475" y="-1530" width="160" height="190" as="geometry"/>
                </mxCell>
                <mxCell id="85" value="List: Running boot-tasks" style="rounded=0;whiteSpace=wrap;html=1;strokeColor=#2D7600;fontColor=#ffffff;fillColor=#60a917;verticalAlign=top;" parent="1" vertex="1">
                    <mxGeometry x="-475" y="-1330" width="160" height="190" as="geometry"/>
                </mxCell>
                <mxCell id="86" value="boot-sets UI" style="rounded=0;whiteSpace=wrap;html=1;fillColor=#cdeb8b;strokeColor=#36393d;verticalAlign=top;fontStyle=1;fontColor=#000000;" parent="1" vertex="1">
                    <mxGeometry x="-690" y="940" width="660" height="460" as="geometry"/>
                </mxCell>
                <mxCell id="87" value="Drag&amp;amp;Drop: List of Files" style="rounded=0;whiteSpace=wrap;html=1;strokeColor=#2D7600;fontColor=#ffffff;fillColor=#60a917;verticalAlign=top;" parent="1" vertex="1">
                    <mxGeometry x="-680" y="1030" width="190" height="360" as="geometry"/>
                </mxCell>
                <mxCell id="91" value="Tree: Files in set" style="rounded=0;whiteSpace=wrap;html=1;strokeColor=#005700;fontColor=#ffffff;fillColor=#008a00;verticalAlign=top;" parent="1" vertex="1">
                    <mxGeometry x="-450" y="1000" width="190" height="390" as="geometry"/>
                </mxCell>
                <mxCell id="92" value="Formular: set details" style="rounded=0;whiteSpace=wrap;html=1;strokeColor=#A50040;fontColor=#ffffff;fillColor=#d80073;verticalAlign=top;" parent="1" vertex="1">
                    <mxGeometry x="-230" y="1200" width="190" height="190" as="geometry"/>
                </mxCell>
                <mxCell id="94" value="Action Buttons: Create set, delete set, edit set, save changes, discard changes" style="rounded=0;whiteSpace=wrap;html=1;strokeColor=#006EAF;fontColor=#ffffff;fillColor=#1ba1e2;" parent="1" vertex="1">
                    <mxGeometry x="-680" y="970" width="640" height="20" as="geometry"/>
                </mxCell>
                <mxCell id="95" value="&lt;br&gt;&lt;span style=&quot;color: rgb(255, 255, 255); font-family: Helvetica; font-size: 12px; font-style: normal; font-variant-ligatures: normal; font-variant-caps: normal; font-weight: 400; letter-spacing: normal; orphans: 2; text-align: center; text-indent: 0px; text-transform: none; widows: 2; word-spacing: 0px; -webkit-text-stroke-width: 0px; background-color: rgb(27, 161, 226); text-decoration-thickness: initial; text-decoration-style: initial; text-decoration-color: initial; float: none; display: inline !important;&quot;&gt;move to set&lt;/span&gt;" style="triangle;whiteSpace=wrap;html=1;strokeColor=#006EAF;fontColor=#ffffff;fillColor=#1ba1e2;horizontal=0;verticalAlign=middle;labelPosition=center;verticalLabelPosition=middle;align=center;spacing=2;spacingBottom=23;" parent="1" vertex="1">
                    <mxGeometry x="-485" y="1020" width="30" height="350" as="geometry"/>
                </mxCell>
                <mxCell id="104" value="List: used by&amp;nbsp; boot-tasks" style="rounded=0;whiteSpace=wrap;html=1;strokeColor=#2D7600;fontColor=#ffffff;fillColor=#60a917;verticalAlign=top;" parent="1" vertex="1">
                    <mxGeometry x="-230" y="1000" width="190" height="190" as="geometry"/>
                </mxCell>
                <mxCell id="105" value="Choose Files" style="rounded=0;whiteSpace=wrap;html=1;strokeColor=#006EAF;fontColor=#ffffff;fillColor=#1ba1e2;" parent="1" vertex="1">
                    <mxGeometry x="-680" y="1000" width="190" height="20" as="geometry"/>
                </mxCell>
                <mxCell id="373" style="edgeStyle=orthogonalEdgeStyle;rounded=1;html=1;exitX=1;exitY=0.5;exitDx=0;exitDy=0;entryX=0.25;entryY=0;entryDx=0;entryDy=0;fontSize=14;endArrow=block;endFill=1;shadow=1;" parent="1" source="231" target="356" edge="1">
                    <mxGeometry relative="1" as="geometry"/>
                </mxCell>
                <mxCell id="231" value="Actions: edit details" style="rounded=0;whiteSpace=wrap;html=1;strokeColor=#6F0000;fontColor=#ffffff;fillColor=#a20025;" parent="1" vertex="1">
                    <mxGeometry x="-220" y="-60" width="170" height="50" as="geometry"/>
                </mxCell>
                <mxCell id="381" style="edgeStyle=orthogonalEdgeStyle;rounded=1;html=1;exitX=1;exitY=0.5;exitDx=0;exitDy=0;entryX=0.25;entryY=0;entryDx=0;entryDy=0;fontSize=14;endArrow=block;endFill=1;" parent="1" source="232" target="375" edge="1">
                    <mxGeometry relative="1" as="geometry"/>
                </mxCell>
                <mxCell id="232" value="Actions: edit details" style="rounded=0;whiteSpace=wrap;html=1;strokeColor=#6F0000;fontColor=#ffffff;fillColor=#a20025;" parent="1" vertex="1">
                    <mxGeometry x="-220" y="1230" width="170" height="50" as="geometry"/>
                </mxCell>
                <mxCell id="644" style="edgeStyle=orthogonalEdgeStyle;html=1;exitX=0.5;exitY=0;exitDx=0;exitDy=0;entryX=0.5;entryY=0;entryDx=0;entryDy=0;dashed=1;dashPattern=1 1;strokeWidth=2;endArrow=none;endFill=0;" edge="1" parent="1" source="233" target="628">
                    <mxGeometry relative="1" as="geometry">
                        <Array as="points">
                            <mxPoint x="-360" y="270"/>
                            <mxPoint x="215" y="270"/>
                        </Array>
                    </mxGeometry>
                </mxCell>
                <mxCell id="233" value="boot-task UI" style="rounded=0;whiteSpace=wrap;html=1;fillColor=#cdeb8b;strokeColor=#36393d;verticalAlign=top;fontStyle=1;fontColor=#000000;" parent="1" vertex="1">
                    <mxGeometry x="-690" y="300" width="660" height="460" as="geometry"/>
                </mxCell>
                <mxCell id="234" value="Interactive: Task order" style="rounded=0;whiteSpace=wrap;html=1;strokeColor=#2D7600;fontColor=#ffffff;fillColor=#60a917;verticalAlign=top;" parent="1" vertex="1">
                    <mxGeometry x="-450" y="360" width="190" height="390" as="geometry"/>
                </mxCell>
                <mxCell id="236" value="Formular: task details" style="rounded=0;whiteSpace=wrap;html=1;strokeColor=#A50040;fontColor=#ffffff;fillColor=#d80073;verticalAlign=top;" parent="1" vertex="1">
                    <mxGeometry x="-230" y="560" width="190" height="190" as="geometry"/>
                </mxCell>
                <mxCell id="237" value="Action Buttons: Create task, delete task, edit task, save changes, discard changes" style="rounded=0;whiteSpace=wrap;html=1;strokeColor=#006EAF;fontColor=#ffffff;fillColor=#1ba1e2;" parent="1" vertex="1">
                    <mxGeometry x="-680" y="330" width="640" height="20" as="geometry"/>
                </mxCell>
                <mxCell id="389" style="edgeStyle=orthogonalEdgeStyle;html=1;exitX=1;exitY=0.5;exitDx=0;exitDy=0;entryX=0.25;entryY=0;entryDx=0;entryDy=0;endArrow=block;endFill=1;" parent="1" source="241" target="383" edge="1">
                    <mxGeometry relative="1" as="geometry"/>
                </mxCell>
                <mxCell id="241" value="Actions: edit details" style="rounded=0;whiteSpace=wrap;html=1;strokeColor=#6F0000;fontColor=#ffffff;fillColor=#a20025;" parent="1" vertex="1">
                    <mxGeometry x="-220" y="590" width="170" height="50" as="geometry"/>
                </mxCell>
                <mxCell id="242" value="List: used by&amp;nbsp; groups" style="rounded=0;whiteSpace=wrap;html=1;strokeColor=#2D7600;fontColor=#ffffff;fillColor=#60a917;verticalAlign=top;" parent="1" vertex="1">
                    <mxGeometry x="-230" y="360" width="190" height="190" as="geometry"/>
                </mxCell>
                <mxCell id="243" value="List: sets, wol, responses,&amp;nbsp;" style="rounded=0;whiteSpace=wrap;html=1;strokeColor=#2D7600;fontColor=#ffffff;fillColor=#60a917;verticalAlign=top;" parent="1" vertex="1">
                    <mxGeometry x="-680" y="360" width="190" height="390" as="geometry"/>
                </mxCell>
                <mxCell id="244" value="&lt;br&gt;&lt;span style=&quot;color: rgb(255, 255, 255); font-family: Helvetica; font-size: 12px; font-style: normal; font-variant-ligatures: normal; font-variant-caps: normal; font-weight: 400; letter-spacing: normal; orphans: 2; text-align: center; text-indent: 0px; text-transform: none; widows: 2; word-spacing: 0px; -webkit-text-stroke-width: 0px; background-color: rgb(27, 161, 226); text-decoration-thickness: initial; text-decoration-style: initial; text-decoration-color: initial; float: none; display: inline !important;&quot;&gt;move to set&lt;/span&gt;" style="triangle;whiteSpace=wrap;html=1;strokeColor=#006EAF;fontColor=#ffffff;fillColor=#1ba1e2;horizontal=0;verticalAlign=middle;labelPosition=center;verticalLabelPosition=middle;align=center;spacing=2;spacingBottom=23;" parent="1" vertex="1">
                    <mxGeometry x="-485" y="380" width="30" height="350" as="geometry"/>
                </mxCell>
                <mxCell id="246" value="Columns: type, name, tags&amp;nbsp;&amp;nbsp;" style="rounded=0;whiteSpace=wrap;html=1;strokeColor=#3700CC;fontColor=#ffffff;fillColor=#6a00ff;" parent="1" vertex="1">
                    <mxGeometry x="-670" y="390" width="170" height="60" as="geometry"/>
                </mxCell>
                <mxCell id="247" value="Columns:&amp;nbsp;&amp;nbsp;" style="rounded=0;whiteSpace=wrap;html=1;strokeColor=#3700CC;fontColor=#ffffff;fillColor=#6a00ff;" parent="1" vertex="1">
                    <mxGeometry x="-220" y="390" width="170" height="60" as="geometry"/>
                </mxCell>
                <mxCell id="249" value="Columns:&amp;nbsp;&amp;nbsp;" style="rounded=0;whiteSpace=wrap;html=1;strokeColor=#3700CC;fontColor=#ffffff;fillColor=#6a00ff;" parent="1" vertex="1">
                    <mxGeometry x="-220" y="1030" width="170" height="60" as="geometry"/>
                </mxCell>
                <mxCell id="255" value="" style="verticalLabelPosition=bottom;shadow=0;dashed=0;align=center;html=1;verticalAlign=top;strokeWidth=1;shape=mxgraph.mockup.graphics.barChart;strokeColor=default;strokeColor2=none;strokeColor3=#666666;fillColor2=#008cff;fillColor3=#dddddd;fillColor=#60a917;fontColor=#ffffff;" parent="1" vertex="1">
                    <mxGeometry x="-475" y="-1500" width="160" height="160" as="geometry"/>
                </mxCell>
                <mxCell id="312" value="Side Panel" style="swimlane;fontStyle=0;childLayout=stackLayout;horizontal=1;startSize=30;horizontalStack=0;resizeParent=1;resizeParentMax=0;resizeLast=0;collapsible=1;marginBottom=0;whiteSpace=wrap;html=1;strokeColor=#2D7600;fillColor=#60a917;fontColor=#ffffff;fontSize=14;" parent="1" vertex="1">
                    <mxGeometry x="-1200" y="-955" width="280" height="360" as="geometry"/>
                </mxCell>
                <mxCell id="313" value="Dashboard" style="text;strokeColor=#2D7600;fillColor=#60a917;align=left;verticalAlign=middle;spacingLeft=4;spacingRight=4;overflow=hidden;points=[[0,0.5],[1,0.5]];portConstraint=eastwest;rotatable=0;whiteSpace=wrap;html=1;fontColor=#ffffff;" parent="312" vertex="1">
                    <mxGeometry y="30" width="280" height="30" as="geometry"/>
                </mxCell>
                <mxCell id="314" value="actions" style="text;strokeColor=#2D7600;fillColor=#60a917;align=left;verticalAlign=middle;spacingLeft=4;spacingRight=4;overflow=hidden;points=[[0,0.5],[1,0.5]];portConstraint=eastwest;rotatable=0;whiteSpace=wrap;html=1;fontColor=#ffffff;" parent="312" vertex="1">
                    <mxGeometry y="60" width="280" height="30" as="geometry"/>
                </mxCell>
                <mxCell id="321" value="&lt;span style=&quot;white-space: pre;&quot;&gt;&#9;&lt;/span&gt;planning" style="text;strokeColor=#2D7600;fillColor=#60a917;align=left;verticalAlign=middle;spacingLeft=4;spacingRight=4;overflow=hidden;points=[[0,0.5],[1,0.5]];portConstraint=eastwest;rotatable=0;whiteSpace=wrap;html=1;fontColor=#ffffff;" parent="312" vertex="1">
                    <mxGeometry y="90" width="280" height="30" as="geometry"/>
                </mxCell>
                <mxCell id="322" value="&lt;span style=&quot;white-space: pre;&quot;&gt;&#9;&lt;/span&gt;schedule" style="text;strokeColor=#2D7600;fillColor=#60a917;align=left;verticalAlign=middle;spacingLeft=4;spacingRight=4;overflow=hidden;points=[[0,0.5],[1,0.5]];portConstraint=eastwest;rotatable=0;whiteSpace=wrap;html=1;fontColor=#ffffff;" parent="312" vertex="1">
                    <mxGeometry y="120" width="280" height="30" as="geometry"/>
                </mxCell>
                <mxCell id="315" value="configuration" style="text;strokeColor=#2D7600;fillColor=#60a917;align=left;verticalAlign=middle;spacingLeft=4;spacingRight=4;overflow=hidden;points=[[0,0.5],[1,0.5]];portConstraint=eastwest;rotatable=0;whiteSpace=wrap;html=1;fontColor=#ffffff;" parent="312" vertex="1">
                    <mxGeometry y="150" width="280" height="30" as="geometry"/>
                </mxCell>
                <mxCell id="316" value="&lt;span style=&quot;white-space: pre;&quot;&gt;&#9;&lt;/span&gt;groups" style="text;strokeColor=#2D7600;fillColor=#60a917;align=left;verticalAlign=middle;spacingLeft=4;spacingRight=4;overflow=hidden;points=[[0,0.5],[1,0.5]];portConstraint=eastwest;rotatable=0;whiteSpace=wrap;html=1;fontColor=#ffffff;" parent="312" vertex="1">
                    <mxGeometry y="180" width="280" height="30" as="geometry"/>
                </mxCell>
                <mxCell id="317" value="&lt;span style=&quot;white-space: pre;&quot;&gt;&#9;&lt;/span&gt;boot-sets" style="text;strokeColor=#2D7600;fillColor=#60a917;align=left;verticalAlign=middle;spacingLeft=4;spacingRight=4;overflow=hidden;points=[[0,0.5],[1,0.5]];portConstraint=eastwest;rotatable=0;whiteSpace=wrap;html=1;fontColor=#ffffff;" parent="312" vertex="1">
                    <mxGeometry y="210" width="280" height="30" as="geometry"/>
                </mxCell>
                <mxCell id="318" value="&lt;span style=&quot;white-space: pre;&quot;&gt;&#9;&lt;/span&gt;boot-tasks" style="text;strokeColor=#2D7600;fillColor=#60a917;align=left;verticalAlign=middle;spacingLeft=4;spacingRight=4;overflow=hidden;points=[[0,0.5],[1,0.5]];portConstraint=eastwest;rotatable=0;whiteSpace=wrap;html=1;fontColor=#ffffff;" parent="312" vertex="1">
                    <mxGeometry y="240" width="280" height="30" as="geometry"/>
                </mxCell>
                <mxCell id="319" value="&lt;span style=&quot;white-space: pre;&quot;&gt;&#9;&lt;/span&gt;trigger" style="text;strokeColor=#2D7600;fillColor=#60a917;align=left;verticalAlign=middle;spacingLeft=4;spacingRight=4;overflow=hidden;points=[[0,0.5],[1,0.5]];portConstraint=eastwest;rotatable=0;whiteSpace=wrap;html=1;fontColor=#ffffff;" parent="312" vertex="1">
                    <mxGeometry y="270" width="280" height="30" as="geometry"/>
                </mxCell>
                <mxCell id="320" value="&lt;span style=&quot;white-space: pre;&quot;&gt;&#9;&lt;/span&gt;responses" style="text;strokeColor=#2D7600;fillColor=#60a917;align=left;verticalAlign=middle;spacingLeft=4;spacingRight=4;overflow=hidden;points=[[0,0.5],[1,0.5]];portConstraint=eastwest;rotatable=0;whiteSpace=wrap;html=1;fontColor=#ffffff;" parent="312" vertex="1">
                    <mxGeometry y="300" width="280" height="30" as="geometry"/>
                </mxCell>
                <mxCell id="323" value="&lt;span style=&quot;white-space: pre;&quot;&gt;&#9;&lt;/span&gt;system-configuration" style="text;strokeColor=#2D7600;fillColor=#60a917;align=left;verticalAlign=middle;spacingLeft=4;spacingRight=4;overflow=hidden;points=[[0,0.5],[1,0.5]];portConstraint=eastwest;rotatable=0;whiteSpace=wrap;html=1;fontColor=#ffffff;" parent="312" vertex="1">
                    <mxGeometry y="330" width="280" height="30" as="geometry"/>
                </mxCell>
                <mxCell id="324" value="" style="labelPosition=right;align=left;strokeWidth=1;shape=mxgraph.mockup.markup.curlyBrace;html=1;shadow=0;dashed=0;strokeColor=#FFFFFF;direction=north;fontSize=14;" parent="1" vertex="1">
                    <mxGeometry x="-790" y="-350" width="80" height="1750" as="geometry"/>
                </mxCell>
                <mxCell id="327" value="" style="endArrow=none;html=1;fontSize=14;entryX=1;entryY=0.5;entryDx=0;entryDy=0;edgeStyle=orthogonalEdgeStyle;rounded=1;" parent="1" source="324" target="315" edge="1">
                    <mxGeometry width="50" height="50" relative="1" as="geometry">
                        <mxPoint x="-890" y="430" as="sourcePoint"/>
                        <mxPoint x="-890" y="-660" as="targetPoint"/>
                        <Array as="points">
                            <mxPoint x="-850" y="525"/>
                            <mxPoint x="-850" y="-790"/>
                        </Array>
                    </mxGeometry>
                </mxCell>
                <mxCell id="329" value="" style="labelPosition=right;align=left;strokeWidth=1;shape=mxgraph.mockup.markup.curlyBrace;html=1;shadow=0;dashed=0;strokeColor=#FFFFFF;direction=north;fontSize=14;" parent="1" vertex="1">
                    <mxGeometry x="-790" y="-1590" width="80" height="460" as="geometry"/>
                </mxCell>
                <mxCell id="330" value="" style="endArrow=none;html=1;rounded=1;fontSize=14;exitX=1;exitY=0.5;exitDx=0;exitDy=0;entryX=0.5;entryY=0;entryDx=0;entryDy=0;entryPerimeter=0;edgeStyle=orthogonalEdgeStyle;" parent="1" source="313" target="329" edge="1">
                    <mxGeometry width="50" height="50" relative="1" as="geometry">
                        <mxPoint x="-970" y="-1170" as="sourcePoint"/>
                        <mxPoint x="-920" y="-1220" as="targetPoint"/>
                    </mxGeometry>
                </mxCell>
                <mxCell id="332" value="Groups" style="shape=table;startSize=30;container=1;collapsible=1;childLayout=tableLayout;fixedRows=1;rowLines=0;fontStyle=1;align=center;resizeLast=1;strokeColor=#006EAF;fontSize=14;fillColor=#1ba1e2;fontColor=#ffffff;" parent="1" vertex="1">
                    <mxGeometry x="1310" y="-160" width="180" height="200" as="geometry"/>
                </mxCell>
                <mxCell id="333" value="" style="shape=tableRow;horizontal=0;startSize=0;swimlaneHead=0;swimlaneBody=0;fillColor=#1ba1e2;collapsible=0;dropTarget=0;points=[[0,0.5],[1,0.5]];portConstraint=eastwest;top=0;left=0;right=0;bottom=1;strokeColor=#006EAF;fontSize=14;fontColor=#ffffff;" parent="332" vertex="1">
                    <mxGeometry y="30" width="180" height="50" as="geometry"/>
                </mxCell>
                <mxCell id="334" value="PK" style="shape=partialRectangle;connectable=0;fillColor=#1ba1e2;top=0;left=0;bottom=0;right=0;fontStyle=1;overflow=hidden;strokeColor=#006EAF;fontSize=14;fontColor=#ffffff;" parent="333" vertex="1">
                    <mxGeometry width="30" height="50" as="geometry">
                        <mxRectangle width="30" height="50" as="alternateBounds"/>
                    </mxGeometry>
                </mxCell>
                <mxCell id="335" value="UniqueID" style="shape=partialRectangle;connectable=0;fillColor=#1ba1e2;top=0;left=0;bottom=0;right=0;align=left;spacingLeft=6;fontStyle=5;overflow=hidden;strokeColor=#006EAF;fontSize=14;fontColor=#ffffff;" parent="333" vertex="1">
                    <mxGeometry x="30" width="150" height="50" as="geometry">
                        <mxRectangle width="150" height="50" as="alternateBounds"/>
                    </mxGeometry>
                </mxCell>
                <mxCell id="336" value="" style="shape=tableRow;horizontal=0;startSize=0;swimlaneHead=0;swimlaneBody=0;fillColor=#1ba1e2;collapsible=0;dropTarget=0;points=[[0,0.5],[1,0.5]];portConstraint=eastwest;top=0;left=0;right=0;bottom=0;strokeColor=#006EAF;fontSize=14;fontColor=#ffffff;" parent="332" vertex="1">
                    <mxGeometry y="80" width="180" height="30" as="geometry"/>
                </mxCell>
                <mxCell id="337" value="" style="shape=partialRectangle;connectable=0;fillColor=#1ba1e2;top=0;left=0;bottom=0;right=0;editable=1;overflow=hidden;strokeColor=#006EAF;fontSize=14;fontColor=#ffffff;" parent="336" vertex="1">
                    <mxGeometry width="30" height="30" as="geometry">
                        <mxRectangle width="30" height="30" as="alternateBounds"/>
                    </mxGeometry>
                </mxCell>
                <mxCell id="338" value="" style="shape=partialRectangle;connectable=0;fillColor=#1ba1e2;top=0;left=0;bottom=0;right=0;align=left;spacingLeft=6;overflow=hidden;strokeColor=#006EAF;fontSize=14;fontColor=#ffffff;" parent="336" vertex="1">
                    <mxGeometry x="30" width="150" height="30" as="geometry">
                        <mxRectangle width="150" height="30" as="alternateBounds"/>
                    </mxGeometry>
                </mxCell>
                <mxCell id="339" value="" style="shape=tableRow;horizontal=0;startSize=0;swimlaneHead=0;swimlaneBody=0;fillColor=#1ba1e2;collapsible=0;dropTarget=0;points=[[0,0.5],[1,0.5]];portConstraint=eastwest;top=0;left=0;right=0;bottom=0;strokeColor=#006EAF;fontSize=14;fontColor=#ffffff;" parent="332" vertex="1">
                    <mxGeometry y="110" width="180" height="30" as="geometry"/>
                </mxCell>
                <mxCell id="340" value="" style="shape=partialRectangle;connectable=0;fillColor=#1ba1e2;top=0;left=0;bottom=0;right=0;editable=1;overflow=hidden;strokeColor=#006EAF;fontSize=14;fontColor=#ffffff;" parent="339" vertex="1">
                    <mxGeometry width="30" height="30" as="geometry">
                        <mxRectangle width="30" height="30" as="alternateBounds"/>
                    </mxGeometry>
                </mxCell>
                <mxCell id="341" value="Row 2" style="shape=partialRectangle;connectable=0;fillColor=#1ba1e2;top=0;left=0;bottom=0;right=0;align=left;spacingLeft=6;overflow=hidden;strokeColor=#006EAF;fontSize=14;fontColor=#ffffff;" parent="339" vertex="1">
                    <mxGeometry x="30" width="150" height="30" as="geometry">
                        <mxRectangle width="150" height="30" as="alternateBounds"/>
                    </mxGeometry>
                </mxCell>
                <mxCell id="342" value="" style="shape=tableRow;horizontal=0;startSize=0;swimlaneHead=0;swimlaneBody=0;fillColor=#1ba1e2;collapsible=0;dropTarget=0;points=[[0,0.5],[1,0.5]];portConstraint=eastwest;top=0;left=0;right=0;bottom=0;strokeColor=#006EAF;fontSize=14;fontColor=#ffffff;" parent="332" vertex="1">
                    <mxGeometry y="140" width="180" height="30" as="geometry"/>
                </mxCell>
                <mxCell id="343" value="" style="shape=partialRectangle;connectable=0;fillColor=#1ba1e2;top=0;left=0;bottom=0;right=0;editable=1;overflow=hidden;strokeColor=#006EAF;fontSize=14;fontColor=#ffffff;" parent="342" vertex="1">
                    <mxGeometry width="30" height="30" as="geometry">
                        <mxRectangle width="30" height="30" as="alternateBounds"/>
                    </mxGeometry>
                </mxCell>
                <mxCell id="344" value="Row 3" style="shape=partialRectangle;connectable=0;fillColor=#1ba1e2;top=0;left=0;bottom=0;right=0;align=left;spacingLeft=6;overflow=hidden;strokeColor=#006EAF;fontSize=14;fontColor=#ffffff;" parent="342" vertex="1">
                    <mxGeometry x="30" width="150" height="30" as="geometry">
                        <mxRectangle width="150" height="30" as="alternateBounds"/>
                    </mxGeometry>
                </mxCell>
                <mxCell id="517" value="" style="shape=tableRow;horizontal=0;startSize=0;swimlaneHead=0;swimlaneBody=0;fillColor=#1ba1e2;collapsible=0;dropTarget=0;points=[[0,0.5],[1,0.5]];portConstraint=eastwest;top=0;left=0;right=0;bottom=0;strokeColor=#006EAF;fontSize=14;fontColor=#ffffff;" parent="332" vertex="1">
                    <mxGeometry y="170" width="180" height="30" as="geometry"/>
                </mxCell>
                <mxCell id="518" value="" style="shape=partialRectangle;connectable=0;fillColor=#1ba1e2;top=0;left=0;bottom=0;right=0;editable=1;overflow=hidden;strokeColor=#006EAF;fontSize=14;fontColor=#ffffff;" parent="517" vertex="1">
                    <mxGeometry width="30" height="30" as="geometry">
                        <mxRectangle width="30" height="30" as="alternateBounds"/>
                    </mxGeometry>
                </mxCell>
                <mxCell id="519" value="" style="shape=partialRectangle;connectable=0;fillColor=#1ba1e2;top=0;left=0;bottom=0;right=0;align=left;spacingLeft=6;overflow=hidden;strokeColor=#006EAF;fontSize=14;fontColor=#ffffff;" parent="517" vertex="1">
                    <mxGeometry x="30" width="150" height="30" as="geometry">
                        <mxRectangle width="150" height="30" as="alternateBounds"/>
                    </mxGeometry>
                </mxCell>
                <mxCell id="356" value="editable" style="swimlane;fontStyle=0;childLayout=stackLayout;horizontal=1;startSize=30;horizontalStack=0;resizeParent=1;resizeParentMax=0;resizeLast=0;collapsible=1;marginBottom=0;whiteSpace=wrap;html=1;strokeColor=#A50040;fillColor=#d80073;fontColor=#ffffff;fontSize=14;" parent="1" vertex="1">
                    <mxGeometry x="-20" y="20" width="230" height="210" as="geometry"/>
                </mxCell>
                <mxCell id="357" value="(string)&amp;nbsp;name" style="text;strokeColor=#A50040;fillColor=#d80073;align=left;verticalAlign=middle;spacingLeft=4;spacingRight=4;overflow=hidden;points=[[0,0.5],[1,0.5]];portConstraint=eastwest;rotatable=0;whiteSpace=wrap;html=1;fontColor=#ffffff;" parent="356" vertex="1">
                    <mxGeometry y="30" width="230" height="30" as="geometry"/>
                </mxCell>
                <mxCell id="358" value="(string search) tags" style="text;strokeColor=#A50040;fillColor=#d80073;align=left;verticalAlign=middle;spacingLeft=4;spacingRight=4;overflow=hidden;points=[[0,0.5],[1,0.5]];portConstraint=eastwest;rotatable=0;whiteSpace=wrap;html=1;fontColor=#ffffff;" parent="356" vertex="1">
                    <mxGeometry y="60" width="230" height="30" as="geometry"/>
                </mxCell>
                <mxCell id="368" value="(dropdown) parentgroup" style="text;strokeColor=#A50040;fillColor=#d80073;align=left;verticalAlign=middle;spacingLeft=4;spacingRight=4;overflow=hidden;points=[[0,0.5],[1,0.5]];portConstraint=eastwest;rotatable=0;whiteSpace=wrap;html=1;fontColor=#ffffff;" parent="356" vertex="1">
                    <mxGeometry y="90" width="230" height="30" as="geometry"/>
                </mxCell>
                <mxCell id="369" value="(dropdown) boot-task" style="text;strokeColor=#A50040;fillColor=#d80073;align=left;verticalAlign=middle;spacingLeft=4;spacingRight=4;overflow=hidden;points=[[0,0.5],[1,0.5]];portConstraint=eastwest;rotatable=0;whiteSpace=wrap;html=1;fontColor=#ffffff;" parent="356" vertex="1">
                    <mxGeometry y="120" width="230" height="30" as="geometry"/>
                </mxCell>
                <mxCell id="372" value="(dropdown) target" style="text;strokeColor=#A50040;fillColor=#d80073;align=left;verticalAlign=middle;spacingLeft=4;spacingRight=4;overflow=hidden;points=[[0,0.5],[1,0.5]];portConstraint=eastwest;rotatable=0;whiteSpace=wrap;html=1;fontColor=#ffffff;" parent="356" vertex="1">
                    <mxGeometry y="150" width="230" height="30" as="geometry"/>
                </mxCell>
                <mxCell id="382" value="(string) description" style="text;strokeColor=#A50040;fillColor=#d80073;align=left;verticalAlign=middle;spacingLeft=4;spacingRight=4;overflow=hidden;points=[[0,0.5],[1,0.5]];portConstraint=eastwest;rotatable=0;whiteSpace=wrap;html=1;fontColor=#ffffff;" parent="356" vertex="1">
                    <mxGeometry y="180" width="230" height="30" as="geometry"/>
                </mxCell>
                <mxCell id="371" value="Columns: MAC, IP, name, tags&amp;nbsp;&amp;nbsp;" style="rounded=0;whiteSpace=wrap;html=1;strokeColor=#3700CC;fontColor=#ffffff;fillColor=#6a00ff;" parent="1" vertex="1">
                    <mxGeometry x="-670" y="-260" width="170" height="60" as="geometry"/>
                </mxCell>
                <mxCell id="375" value="editable" style="swimlane;fontStyle=0;childLayout=stackLayout;horizontal=1;startSize=30;horizontalStack=0;resizeParent=1;resizeParentMax=0;resizeLast=0;collapsible=1;marginBottom=0;whiteSpace=wrap;html=1;strokeColor=#A50040;fillColor=#d80073;fontColor=#ffffff;fontSize=14;" parent="1" vertex="1">
                    <mxGeometry x="-20" y="1310" width="230" height="180" as="geometry"/>
                </mxCell>
                <mxCell id="376" value="(string)&amp;nbsp;name" style="text;strokeColor=#A50040;fillColor=#d80073;align=left;verticalAlign=middle;spacingLeft=4;spacingRight=4;overflow=hidden;points=[[0,0.5],[1,0.5]];portConstraint=eastwest;rotatable=0;whiteSpace=wrap;html=1;fontColor=#ffffff;" parent="375" vertex="1">
                    <mxGeometry y="30" width="230" height="30" as="geometry"/>
                </mxCell>
                <mxCell id="377" value="(string) tags" style="text;strokeColor=#A50040;fillColor=#d80073;align=left;verticalAlign=middle;spacingLeft=4;spacingRight=4;overflow=hidden;points=[[0,0.5],[1,0.5]];portConstraint=eastwest;rotatable=0;whiteSpace=wrap;html=1;fontColor=#ffffff;" parent="375" vertex="1">
                    <mxGeometry y="60" width="230" height="30" as="geometry"/>
                </mxCell>
                <mxCell id="378" value="(editable dropdown) category" style="text;strokeColor=#A50040;fillColor=#d80073;align=left;verticalAlign=middle;spacingLeft=4;spacingRight=4;overflow=hidden;points=[[0,0.5],[1,0.5]];portConstraint=eastwest;rotatable=0;whiteSpace=wrap;html=1;fontColor=#ffffff;" parent="375" vertex="1">
                    <mxGeometry y="90" width="230" height="30" as="geometry"/>
                </mxCell>
                <mxCell id="379" value="(multiple choice dropdown) responses" style="text;strokeColor=#A50040;fillColor=#d80073;align=left;verticalAlign=middle;spacingLeft=4;spacingRight=4;overflow=hidden;points=[[0,0.5],[1,0.5]];portConstraint=eastwest;rotatable=0;whiteSpace=wrap;html=1;fontColor=#ffffff;" parent="375" vertex="1">
                    <mxGeometry y="120" width="230" height="30" as="geometry"/>
                </mxCell>
                <mxCell id="380" value="(string) description" style="text;strokeColor=#A50040;fillColor=#d80073;align=left;verticalAlign=middle;spacingLeft=4;spacingRight=4;overflow=hidden;points=[[0,0.5],[1,0.5]];portConstraint=eastwest;rotatable=0;whiteSpace=wrap;html=1;fontColor=#ffffff;" parent="375" vertex="1">
                    <mxGeometry y="150" width="230" height="30" as="geometry"/>
                </mxCell>
                <mxCell id="383" value="editable" style="swimlane;fontStyle=0;childLayout=stackLayout;horizontal=1;startSize=30;horizontalStack=0;resizeParent=1;resizeParentMax=0;resizeLast=0;collapsible=1;marginBottom=0;whiteSpace=wrap;html=1;strokeColor=#A50040;fillColor=#d80073;fontColor=#ffffff;fontSize=14;" parent="1" vertex="1">
                    <mxGeometry x="-20" y="670" width="230" height="180" as="geometry"/>
                </mxCell>
                <mxCell id="384" value="(string)&amp;nbsp;name" style="text;strokeColor=#A50040;fillColor=#d80073;align=left;verticalAlign=middle;spacingLeft=4;spacingRight=4;overflow=hidden;points=[[0,0.5],[1,0.5]];portConstraint=eastwest;rotatable=0;whiteSpace=wrap;html=1;fontColor=#ffffff;" parent="383" vertex="1">
                    <mxGeometry y="30" width="230" height="30" as="geometry"/>
                </mxCell>
                <mxCell id="385" value="(string) tags" style="text;strokeColor=#A50040;fillColor=#d80073;align=left;verticalAlign=middle;spacingLeft=4;spacingRight=4;overflow=hidden;points=[[0,0.5],[1,0.5]];portConstraint=eastwest;rotatable=0;whiteSpace=wrap;html=1;fontColor=#ffffff;" parent="383" vertex="1">
                    <mxGeometry y="60" width="230" height="30" as="geometry"/>
                </mxCell>
                <mxCell id="386" value="(editable dropdown) category" style="text;strokeColor=#A50040;fillColor=#d80073;align=left;verticalAlign=middle;spacingLeft=4;spacingRight=4;overflow=hidden;points=[[0,0.5],[1,0.5]];portConstraint=eastwest;rotatable=0;whiteSpace=wrap;html=1;fontColor=#ffffff;" parent="383" vertex="1">
                    <mxGeometry y="90" width="230" height="30" as="geometry"/>
                </mxCell>
                <mxCell id="387" value="(multiple choice dropdown) responses" style="text;strokeColor=#A50040;fillColor=#d80073;align=left;verticalAlign=middle;spacingLeft=4;spacingRight=4;overflow=hidden;points=[[0,0.5],[1,0.5]];portConstraint=eastwest;rotatable=0;whiteSpace=wrap;html=1;fontColor=#ffffff;" parent="383" vertex="1">
                    <mxGeometry y="120" width="230" height="30" as="geometry"/>
                </mxCell>
                <mxCell id="388" value="(string) description" style="text;strokeColor=#A50040;fillColor=#d80073;align=left;verticalAlign=middle;spacingLeft=4;spacingRight=4;overflow=hidden;points=[[0,0.5],[1,0.5]];portConstraint=eastwest;rotatable=0;whiteSpace=wrap;html=1;fontColor=#ffffff;" parent="383" vertex="1">
                    <mxGeometry y="150" width="230" height="30" as="geometry"/>
                </mxCell>
                <mxCell id="390" value="Devices" style="shape=table;startSize=30;container=1;collapsible=1;childLayout=tableLayout;fixedRows=1;rowLines=0;fontStyle=1;align=center;resizeLast=1;strokeColor=#006EAF;fontSize=14;fillColor=#1ba1e2;fontColor=#ffffff;" parent="1" vertex="1">
                    <mxGeometry x="790" y="-140" width="180" height="270" as="geometry"/>
                </mxCell>
                <mxCell id="391" value="" style="shape=tableRow;horizontal=0;startSize=0;swimlaneHead=0;swimlaneBody=0;fillColor=#1ba1e2;collapsible=0;dropTarget=0;points=[[0,0.5],[1,0.5]];portConstraint=eastwest;top=0;left=0;right=0;bottom=1;strokeColor=#006EAF;fontSize=14;fontColor=#ffffff;" parent="390" vertex="1">
                    <mxGeometry y="30" width="180" height="30" as="geometry"/>
                </mxCell>
                <mxCell id="392" value="PK" style="shape=partialRectangle;connectable=0;fillColor=#1ba1e2;top=0;left=0;bottom=0;right=0;fontStyle=1;overflow=hidden;strokeColor=#006EAF;fontSize=14;fontColor=#ffffff;" parent="391" vertex="1">
                    <mxGeometry width="30" height="30" as="geometry">
                        <mxRectangle width="30" height="30" as="alternateBounds"/>
                    </mxGeometry>
                </mxCell>
                <mxCell id="393" value="UniqueID" style="shape=partialRectangle;connectable=0;fillColor=#1ba1e2;top=0;left=0;bottom=0;right=0;align=left;spacingLeft=6;fontStyle=5;overflow=hidden;strokeColor=#006EAF;fontSize=14;fontColor=#ffffff;" parent="391" vertex="1">
                    <mxGeometry x="30" width="150" height="30" as="geometry">
                        <mxRectangle width="150" height="30" as="alternateBounds"/>
                    </mxGeometry>
                </mxCell>
                <mxCell id="394" value="" style="shape=tableRow;horizontal=0;startSize=0;swimlaneHead=0;swimlaneBody=0;fillColor=#1ba1e2;collapsible=0;dropTarget=0;points=[[0,0.5],[1,0.5]];portConstraint=eastwest;top=0;left=0;right=0;bottom=0;strokeColor=#006EAF;fontSize=14;fontColor=#ffffff;" parent="390" vertex="1">
                    <mxGeometry y="60" width="180" height="30" as="geometry"/>
                </mxCell>
                <mxCell id="395" value="" style="shape=partialRectangle;connectable=0;fillColor=#1ba1e2;top=0;left=0;bottom=0;right=0;editable=1;overflow=hidden;strokeColor=#006EAF;fontSize=14;fontColor=#ffffff;" parent="394" vertex="1">
                    <mxGeometry width="30" height="30" as="geometry">
                        <mxRectangle width="30" height="30" as="alternateBounds"/>
                    </mxGeometry>
                </mxCell>
                <mxCell id="396" value="Name" style="shape=partialRectangle;connectable=0;fillColor=#1ba1e2;top=0;left=0;bottom=0;right=0;align=left;spacingLeft=6;overflow=hidden;strokeColor=#006EAF;fontSize=14;fontColor=#ffffff;" parent="394" vertex="1">
                    <mxGeometry x="30" width="150" height="30" as="geometry">
                        <mxRectangle width="150" height="30" as="alternateBounds"/>
                    </mxGeometry>
                </mxCell>
                <mxCell id="397" value="" style="shape=tableRow;horizontal=0;startSize=0;swimlaneHead=0;swimlaneBody=0;fillColor=#1ba1e2;collapsible=0;dropTarget=0;points=[[0,0.5],[1,0.5]];portConstraint=eastwest;top=0;left=0;right=0;bottom=0;strokeColor=#006EAF;fontSize=14;fontColor=#ffffff;" parent="390" vertex="1">
                    <mxGeometry y="90" width="180" height="30" as="geometry"/>
                </mxCell>
                <mxCell id="398" value="" style="shape=partialRectangle;connectable=0;fillColor=#1ba1e2;top=0;left=0;bottom=0;right=0;editable=1;overflow=hidden;strokeColor=#006EAF;fontSize=14;fontColor=#ffffff;" parent="397" vertex="1">
                    <mxGeometry width="30" height="30" as="geometry">
                        <mxRectangle width="30" height="30" as="alternateBounds"/>
                    </mxGeometry>
                </mxCell>
                <mxCell id="399" value="IP" style="shape=partialRectangle;connectable=0;fillColor=#1ba1e2;top=0;left=0;bottom=0;right=0;align=left;spacingLeft=6;overflow=hidden;strokeColor=#006EAF;fontSize=14;fontColor=#ffffff;" parent="397" vertex="1">
                    <mxGeometry x="30" width="150" height="30" as="geometry">
                        <mxRectangle width="150" height="30" as="alternateBounds"/>
                    </mxGeometry>
                </mxCell>
                <mxCell id="400" value="" style="shape=tableRow;horizontal=0;startSize=0;swimlaneHead=0;swimlaneBody=0;fillColor=#1ba1e2;collapsible=0;dropTarget=0;points=[[0,0.5],[1,0.5]];portConstraint=eastwest;top=0;left=0;right=0;bottom=0;strokeColor=#006EAF;fontSize=14;fontColor=#ffffff;" parent="390" vertex="1">
                    <mxGeometry y="120" width="180" height="30" as="geometry"/>
                </mxCell>
                <mxCell id="401" value="" style="shape=partialRectangle;connectable=0;fillColor=#1ba1e2;top=0;left=0;bottom=0;right=0;editable=1;overflow=hidden;strokeColor=#006EAF;fontSize=14;fontColor=#ffffff;" parent="400" vertex="1">
                    <mxGeometry width="30" height="30" as="geometry">
                        <mxRectangle width="30" height="30" as="alternateBounds"/>
                    </mxGeometry>
                </mxCell>
                <mxCell id="402" value="MAC" style="shape=partialRectangle;connectable=0;fillColor=#1ba1e2;top=0;left=0;bottom=0;right=0;align=left;spacingLeft=6;overflow=hidden;strokeColor=#006EAF;fontSize=14;fontColor=#ffffff;" parent="400" vertex="1">
                    <mxGeometry x="30" width="150" height="30" as="geometry">
                        <mxRectangle width="150" height="30" as="alternateBounds"/>
                    </mxGeometry>
                </mxCell>
                <mxCell id="472" value="" style="shape=tableRow;horizontal=0;startSize=0;swimlaneHead=0;swimlaneBody=0;fillColor=#1ba1e2;collapsible=0;dropTarget=0;points=[[0,0.5],[1,0.5]];portConstraint=eastwest;top=0;left=0;right=0;bottom=0;strokeColor=#006EAF;fontSize=14;fontColor=#ffffff;" parent="390" vertex="1">
                    <mxGeometry y="150" width="180" height="30" as="geometry"/>
                </mxCell>
                <mxCell id="473" value="" style="shape=partialRectangle;connectable=0;fillColor=#1ba1e2;top=0;left=0;bottom=0;right=0;editable=1;overflow=hidden;strokeColor=#006EAF;fontSize=14;fontColor=#ffffff;" parent="472" vertex="1">
                    <mxGeometry width="30" height="30" as="geometry">
                        <mxRectangle width="30" height="30" as="alternateBounds"/>
                    </mxGeometry>
                </mxCell>
                <mxCell id="474" value="PXE" style="shape=partialRectangle;connectable=0;fillColor=#1ba1e2;top=0;left=0;bottom=0;right=0;align=left;spacingLeft=6;overflow=hidden;strokeColor=#006EAF;fontSize=14;fontColor=#ffffff;" parent="472" vertex="1">
                    <mxGeometry x="30" width="150" height="30" as="geometry">
                        <mxRectangle width="150" height="30" as="alternateBounds"/>
                    </mxGeometry>
                </mxCell>
                <mxCell id="475" value="" style="shape=tableRow;horizontal=0;startSize=0;swimlaneHead=0;swimlaneBody=0;fillColor=#1ba1e2;collapsible=0;dropTarget=0;points=[[0,0.5],[1,0.5]];portConstraint=eastwest;top=0;left=0;right=0;bottom=0;strokeColor=#006EAF;fontSize=14;fontColor=#ffffff;" parent="390" vertex="1">
                    <mxGeometry y="180" width="180" height="30" as="geometry"/>
                </mxCell>
                <mxCell id="476" value="" style="shape=partialRectangle;connectable=0;fillColor=#1ba1e2;top=0;left=0;bottom=0;right=0;editable=1;overflow=hidden;strokeColor=#006EAF;fontSize=14;fontColor=#ffffff;" parent="475" vertex="1">
                    <mxGeometry width="30" height="30" as="geometry">
                        <mxRectangle width="30" height="30" as="alternateBounds"/>
                    </mxGeometry>
                </mxCell>
                <mxCell id="477" value="MAC" style="shape=partialRectangle;connectable=0;fillColor=#1ba1e2;top=0;left=0;bottom=0;right=0;align=left;spacingLeft=6;overflow=hidden;strokeColor=#006EAF;fontSize=14;fontColor=#ffffff;" parent="475" vertex="1">
                    <mxGeometry x="30" width="150" height="30" as="geometry">
                        <mxRectangle width="150" height="30" as="alternateBounds"/>
                    </mxGeometry>
                </mxCell>
                <mxCell id="587" value="" style="shape=tableRow;horizontal=0;startSize=0;swimlaneHead=0;swimlaneBody=0;fillColor=#1ba1e2;collapsible=0;dropTarget=0;points=[[0,0.5],[1,0.5]];portConstraint=eastwest;top=0;left=0;right=0;bottom=0;strokeColor=#006EAF;fontSize=14;fontColor=#ffffff;" parent="390" vertex="1">
                    <mxGeometry y="210" width="180" height="30" as="geometry"/>
                </mxCell>
                <mxCell id="588" value="" style="shape=partialRectangle;connectable=0;fillColor=#1ba1e2;top=0;left=0;bottom=0;right=0;editable=1;overflow=hidden;strokeColor=#006EAF;fontSize=14;fontColor=#ffffff;" parent="587" vertex="1">
                    <mxGeometry width="30" height="30" as="geometry">
                        <mxRectangle width="30" height="30" as="alternateBounds"/>
                    </mxGeometry>
                </mxCell>
                <mxCell id="589" value="ActualBoot" style="shape=partialRectangle;connectable=0;fillColor=#1ba1e2;top=0;left=0;bottom=0;right=0;align=left;spacingLeft=6;overflow=hidden;strokeColor=#006EAF;fontSize=14;fontColor=#ffffff;" parent="587" vertex="1">
                    <mxGeometry x="30" width="150" height="30" as="geometry">
                        <mxRectangle width="150" height="30" as="alternateBounds"/>
                    </mxGeometry>
                </mxCell>
                <mxCell id="491" value="" style="shape=tableRow;horizontal=0;startSize=0;swimlaneHead=0;swimlaneBody=0;fillColor=#1ba1e2;collapsible=0;dropTarget=0;points=[[0,0.5],[1,0.5]];portConstraint=eastwest;top=0;left=0;right=0;bottom=0;strokeColor=#006EAF;fontSize=14;fontColor=#ffffff;" parent="390" vertex="1">
                    <mxGeometry y="240" width="180" height="30" as="geometry"/>
                </mxCell>
                <mxCell id="492" value="" style="shape=partialRectangle;connectable=0;fillColor=#1ba1e2;top=0;left=0;bottom=0;right=0;editable=1;overflow=hidden;strokeColor=#006EAF;fontSize=14;fontColor=#ffffff;" parent="491" vertex="1">
                    <mxGeometry width="30" height="30" as="geometry">
                        <mxRectangle width="30" height="30" as="alternateBounds"/>
                    </mxGeometry>
                </mxCell>
                <mxCell id="493" value="TargetBoot" style="shape=partialRectangle;connectable=0;fillColor=#1ba1e2;top=0;left=0;bottom=0;right=0;align=left;spacingLeft=6;overflow=hidden;strokeColor=#006EAF;fontSize=14;fontColor=#ffffff;" parent="491" vertex="1">
                    <mxGeometry x="30" width="150" height="30" as="geometry">
                        <mxRectangle width="150" height="30" as="alternateBounds"/>
                    </mxGeometry>
                </mxCell>
                <mxCell id="403" value="NetDiscovery Class" style="rounded=0;whiteSpace=wrap;html=1;fillColor=#fa6800;strokeColor=#C73500;verticalAlign=top;fontColor=#000000;" parent="1" vertex="1">
                    <mxGeometry x="710" y="-630" width="330" height="290" as="geometry"/>
                </mxCell>
                <mxCell id="413" style="edgeStyle=orthogonalEdgeStyle;html=1;exitX=1;exitY=0.5;exitDx=0;exitDy=0;fontColor=#FAF4F4;strokeColor=#FFFFFF;shadow=1;strokeWidth=2;endArrow=block;endFill=1;" parent="1" source="536" target="414" edge="1">
                    <mxGeometry relative="1" as="geometry">
                        <mxPoint x="952.5" y="-250" as="targetPoint"/>
                        <mxPoint x="1015" y="-425" as="sourcePoint"/>
                        <Array as="points">
                            <mxPoint x="1060" y="-485"/>
                            <mxPoint x="1060" y="-310"/>
                            <mxPoint x="880" y="-310"/>
                        </Array>
                    </mxGeometry>
                </mxCell>
                <mxCell id="404" value="Dedects reachable Servers" style="rounded=0;whiteSpace=wrap;html=1;fillColor=#e51400;fontColor=#ffffff;strokeColor=#B20000;align=left;verticalAlign=top;" parent="1" vertex="1">
                    <mxGeometry x="720" y="-600" width="310" height="30" as="geometry"/>
                </mxCell>
                <mxCell id="406" value="WakeOnLan Class" style="rounded=0;whiteSpace=wrap;html=1;fillColor=#fa6800;strokeColor=#C73500;verticalAlign=top;fontColor=#000000;" parent="1" vertex="1">
                    <mxGeometry x="850" y="-1360" width="290" height="290" as="geometry"/>
                </mxCell>
                <mxCell id="407" value="Sends Magic Pakets" style="rounded=0;whiteSpace=wrap;html=1;fillColor=#e51400;fontColor=#ffffff;strokeColor=#B20000;align=left;verticalAlign=top;" parent="1" vertex="1">
                    <mxGeometry x="860" y="-1330" width="270" height="30" as="geometry"/>
                </mxCell>
                <mxCell id="416" style="edgeStyle=orthogonalEdgeStyle;html=1;exitX=0.5;exitY=1;exitDx=0;exitDy=0;entryX=0.5;entryY=0;entryDx=0;entryDy=0;shadow=1;strokeColor=#0A9FCC;strokeWidth=2;fontColor=#FAF4F4;endArrow=block;endFill=1;jumpSize=6;startArrow=block;startFill=1;" parent="1" source="414" target="390" edge="1">
                    <mxGeometry relative="1" as="geometry"/>
                </mxCell>
                <mxCell id="414" value="DBContext" style="rounded=0;whiteSpace=wrap;html=1;fillColor=#1ba1e2;strokeColor=#006EAF;verticalAlign=top;fontColor=#ffffff;" parent="1" vertex="1">
                    <mxGeometry x="790" y="-290" width="180" height="70" as="geometry"/>
                </mxCell>
                <mxCell id="415" value="represents the DB" style="rounded=0;whiteSpace=wrap;html=1;fillColor=#0050ef;fontColor=#ffffff;strokeColor=#001DBC;align=left;verticalAlign=top;" parent="1" vertex="1">
                    <mxGeometry x="800" y="-260" width="160" height="30" as="geometry"/>
                </mxCell>
                <mxCell id="428" value="Methods" style="swimlane;fontStyle=0;childLayout=stackLayout;horizontal=1;startSize=30;horizontalStack=0;resizeParent=1;resizeParentMax=0;resizeLast=0;collapsible=1;marginBottom=0;whiteSpace=wrap;html=1;strokeColor=#B09500;fillColor=#F7BE00;fontColor=#000000;fontSize=14;" parent="1" vertex="1">
                    <mxGeometry x="880" y="-560" width="150" height="90" as="geometry"/>
                </mxCell>
                <mxCell id="431" value="DiscoverDevices" style="text;strokeColor=#B09500;fillColor=#F7BE00;align=left;verticalAlign=middle;spacingLeft=4;spacingRight=4;overflow=hidden;points=[[0,0.5],[1,0.5]];portConstraint=eastwest;rotatable=0;whiteSpace=wrap;html=1;fontColor=#000000;" parent="428" vertex="1">
                    <mxGeometry y="30" width="150" height="30" as="geometry"/>
                </mxCell>
                <mxCell id="536" value="SaveNewDevices" style="text;strokeColor=#B09500;fillColor=#F7BE00;align=left;verticalAlign=middle;spacingLeft=4;spacingRight=4;overflow=hidden;points=[[0,0.5],[1,0.5]];portConstraint=eastwest;rotatable=0;whiteSpace=wrap;html=1;fontColor=#000000;" parent="428" vertex="1">
                    <mxGeometry y="60" width="150" height="30" as="geometry"/>
                </mxCell>
                <mxCell id="435" value="Properties" style="swimlane;fontStyle=0;childLayout=stackLayout;horizontal=1;startSize=30;horizontalStack=0;resizeParent=1;resizeParentMax=0;resizeLast=0;collapsible=1;marginBottom=0;whiteSpace=wrap;html=1;strokeColor=#A639AD;fillColor=#D446BC;fontColor=#000000;fontSize=14;gradientColor=none;" parent="1" vertex="1">
                    <mxGeometry x="720" y="-560" width="150" height="120" as="geometry"/>
                </mxCell>
                <mxCell id="538" value="(Obj List) Devices" style="text;strokeColor=#A639AD;fillColor=#D446BC;align=left;verticalAlign=middle;spacingLeft=4;spacingRight=4;overflow=hidden;points=[[0,0.5],[1,0.5]];portConstraint=eastwest;rotatable=0;whiteSpace=wrap;html=1;fontColor=#000000;gradientColor=none;" parent="435" vertex="1">
                    <mxGeometry y="30" width="150" height="30" as="geometry"/>
                </mxCell>
                <mxCell id="539" value="(string)&amp;nbsp; setting1" style="text;strokeColor=#A639AD;fillColor=#D446BC;align=left;verticalAlign=middle;spacingLeft=4;spacingRight=4;overflow=hidden;points=[[0,0.5],[1,0.5]];portConstraint=eastwest;rotatable=0;whiteSpace=wrap;html=1;fontColor=#000000;gradientColor=none;" parent="435" vertex="1">
                    <mxGeometry y="60" width="150" height="30" as="geometry"/>
                </mxCell>
                <mxCell id="436" value="(string)&amp;nbsp; setting2" style="text;strokeColor=#A639AD;fillColor=#D446BC;align=left;verticalAlign=middle;spacingLeft=4;spacingRight=4;overflow=hidden;points=[[0,0.5],[1,0.5]];portConstraint=eastwest;rotatable=0;whiteSpace=wrap;html=1;fontColor=#000000;gradientColor=none;" parent="435" vertex="1">
                    <mxGeometry y="90" width="150" height="30" as="geometry"/>
                </mxCell>
                <mxCell id="437" value="Methods" style="swimlane;fontStyle=0;childLayout=stackLayout;horizontal=1;startSize=30;horizontalStack=0;resizeParent=1;resizeParentMax=0;resizeLast=0;collapsible=1;marginBottom=0;whiteSpace=wrap;html=1;strokeColor=#B09500;fillColor=#F7BE00;fontColor=#000000;fontSize=14;" parent="1" vertex="1">
                    <mxGeometry x="1000" y="-1290" width="130" height="60" as="geometry"/>
                </mxCell>
                <mxCell id="438" value="1" style="text;strokeColor=#B09500;fillColor=#F7BE00;align=left;verticalAlign=middle;spacingLeft=4;spacingRight=4;overflow=hidden;points=[[0,0.5],[1,0.5]];portConstraint=eastwest;rotatable=0;whiteSpace=wrap;html=1;fontColor=#000000;" parent="437" vertex="1">
                    <mxGeometry y="30" width="130" height="30" as="geometry"/>
                </mxCell>
                <mxCell id="439" value="Properties" style="swimlane;fontStyle=0;childLayout=stackLayout;horizontal=1;startSize=30;horizontalStack=0;resizeParent=1;resizeParentMax=0;resizeLast=0;collapsible=1;marginBottom=0;whiteSpace=wrap;html=1;strokeColor=#A639AD;fillColor=#D446BC;fontColor=#000000;fontSize=14;gradientColor=none;" parent="1" vertex="1">
                    <mxGeometry x="860" y="-1290" width="130" height="60" as="geometry"/>
                </mxCell>
                <mxCell id="440" value="1" style="text;strokeColor=#A639AD;fillColor=#D446BC;align=left;verticalAlign=middle;spacingLeft=4;spacingRight=4;overflow=hidden;points=[[0,0.5],[1,0.5]];portConstraint=eastwest;rotatable=0;whiteSpace=wrap;html=1;fontColor=#000000;gradientColor=none;" parent="439" vertex="1">
                    <mxGeometry y="30" width="130" height="30" as="geometry"/>
                </mxCell>
                <mxCell id="441" value="LeadPxe Class" style="rounded=0;whiteSpace=wrap;html=1;fillColor=#fa6800;strokeColor=#C73500;verticalAlign=top;fontColor=#000000;" parent="1" vertex="1">
                    <mxGeometry x="1190" y="-1360" width="290" height="290" as="geometry"/>
                </mxCell>
                <mxCell id="442" value="Controll all pxe stuff" style="rounded=0;whiteSpace=wrap;html=1;fillColor=#e51400;fontColor=#ffffff;strokeColor=#B20000;align=left;verticalAlign=top;" parent="1" vertex="1">
                    <mxGeometry x="1200" y="-1330" width="270" height="30" as="geometry"/>
                </mxCell>
                <mxCell id="443" value="Methods" style="swimlane;fontStyle=0;childLayout=stackLayout;horizontal=1;startSize=30;horizontalStack=0;resizeParent=1;resizeParentMax=0;resizeLast=0;collapsible=1;marginBottom=0;whiteSpace=wrap;html=1;strokeColor=#B09500;fillColor=#F7BE00;fontColor=#000000;fontSize=14;" parent="1" vertex="1">
                    <mxGeometry x="1340" y="-1290" width="130" height="60" as="geometry"/>
                </mxCell>
                <mxCell id="444" value="1" style="text;strokeColor=#B09500;fillColor=#F7BE00;align=left;verticalAlign=middle;spacingLeft=4;spacingRight=4;overflow=hidden;points=[[0,0.5],[1,0.5]];portConstraint=eastwest;rotatable=0;whiteSpace=wrap;html=1;fontColor=#000000;" parent="443" vertex="1">
                    <mxGeometry y="30" width="130" height="30" as="geometry"/>
                </mxCell>
                <mxCell id="445" value="Properties" style="swimlane;fontStyle=0;childLayout=stackLayout;horizontal=1;startSize=30;horizontalStack=0;resizeParent=1;resizeParentMax=0;resizeLast=0;collapsible=1;marginBottom=0;whiteSpace=wrap;html=1;strokeColor=#A639AD;fillColor=#D446BC;fontColor=#000000;fontSize=14;gradientColor=none;" parent="1" vertex="1">
                    <mxGeometry x="1200" y="-1290" width="130" height="60" as="geometry"/>
                </mxCell>
                <mxCell id="446" value="1" style="text;strokeColor=#A639AD;fillColor=#D446BC;align=left;verticalAlign=middle;spacingLeft=4;spacingRight=4;overflow=hidden;points=[[0,0.5],[1,0.5]];portConstraint=eastwest;rotatable=0;whiteSpace=wrap;html=1;fontColor=#000000;gradientColor=none;" parent="445" vertex="1">
                    <mxGeometry y="30" width="130" height="30" as="geometry"/>
                </mxCell>
                <mxCell id="457" value="Device Model" style="rounded=0;whiteSpace=wrap;html=1;fillColor=#fa6800;strokeColor=#C73500;verticalAlign=top;fontColor=#000000;" parent="1" vertex="1">
                    <mxGeometry x="1190" y="-630" width="290" height="320" as="geometry"/>
                </mxCell>
                <mxCell id="458" value="Devices Model" style="rounded=0;whiteSpace=wrap;html=1;fillColor=#e51400;fontColor=#ffffff;strokeColor=#B20000;align=left;verticalAlign=top;" parent="1" vertex="1">
                    <mxGeometry x="1200" y="-600" width="270" height="30" as="geometry"/>
                </mxCell>
                <mxCell id="459" value="Methods" style="swimlane;fontStyle=0;childLayout=stackLayout;horizontal=1;startSize=30;horizontalStack=0;resizeParent=1;resizeParentMax=0;resizeLast=0;collapsible=1;marginBottom=0;whiteSpace=wrap;html=1;strokeColor=#B09500;fillColor=#F7BE00;fontColor=#000000;fontSize=14;" parent="1" vertex="1">
                    <mxGeometry x="1340" y="-560" width="130" height="60" as="geometry"/>
                </mxCell>
                <mxCell id="460" value="1" style="text;strokeColor=#B09500;fillColor=#F7BE00;align=left;verticalAlign=middle;spacingLeft=4;spacingRight=4;overflow=hidden;points=[[0,0.5],[1,0.5]];portConstraint=eastwest;rotatable=0;whiteSpace=wrap;html=1;fontColor=#000000;" parent="459" vertex="1">
                    <mxGeometry y="30" width="130" height="30" as="geometry"/>
                </mxCell>
                <mxCell id="461" value="Properties" style="swimlane;fontStyle=0;childLayout=stackLayout;horizontal=1;startSize=30;horizontalStack=0;resizeParent=1;resizeParentMax=0;resizeLast=0;collapsible=1;marginBottom=0;whiteSpace=wrap;html=1;strokeColor=#A639AD;fillColor=#D446BC;fontColor=#000000;fontSize=14;gradientColor=none;" parent="1" vertex="1">
                    <mxGeometry x="1200" y="-560" width="130" height="240" as="geometry"/>
                </mxCell>
                <mxCell id="463" value="(int) Id" style="text;strokeColor=#A639AD;fillColor=#D446BC;align=left;verticalAlign=middle;spacingLeft=4;spacingRight=4;overflow=hidden;points=[[0,0.5],[1,0.5]];portConstraint=eastwest;rotatable=0;whiteSpace=wrap;html=1;fontColor=#000000;gradientColor=none;" parent="461" vertex="1">
                    <mxGeometry y="30" width="130" height="30" as="geometry"/>
                </mxCell>
                <mxCell id="464" value="(string) Name" style="text;strokeColor=#A639AD;fillColor=#D446BC;align=left;verticalAlign=middle;spacingLeft=4;spacingRight=4;overflow=hidden;points=[[0,0.5],[1,0.5]];portConstraint=eastwest;rotatable=0;whiteSpace=wrap;html=1;fontColor=#000000;gradientColor=none;" parent="461" vertex="1">
                    <mxGeometry y="60" width="130" height="30" as="geometry"/>
                </mxCell>
                <mxCell id="462" value="(string) IP" style="text;strokeColor=#A639AD;fillColor=#D446BC;align=left;verticalAlign=middle;spacingLeft=4;spacingRight=4;overflow=hidden;points=[[0,0.5],[1,0.5]];portConstraint=eastwest;rotatable=0;whiteSpace=wrap;html=1;fontColor=#000000;gradientColor=none;" parent="461" vertex="1">
                    <mxGeometry y="90" width="130" height="30" as="geometry"/>
                </mxCell>
                <mxCell id="465" value="(string) MAC" style="text;strokeColor=#A639AD;fillColor=#D446BC;align=left;verticalAlign=middle;spacingLeft=4;spacingRight=4;overflow=hidden;points=[[0,0.5],[1,0.5]];portConstraint=eastwest;rotatable=0;whiteSpace=wrap;html=1;fontColor=#000000;gradientColor=none;" parent="461" vertex="1">
                    <mxGeometry y="120" width="130" height="30" as="geometry"/>
                </mxCell>
                <mxCell id="466" value="(bool) WOL" style="text;strokeColor=#A639AD;fillColor=#D446BC;align=left;verticalAlign=middle;spacingLeft=4;spacingRight=4;overflow=hidden;points=[[0,0.5],[1,0.5]];portConstraint=eastwest;rotatable=0;whiteSpace=wrap;html=1;fontColor=#000000;gradientColor=none;" parent="461" vertex="1">
                    <mxGeometry y="150" width="130" height="30" as="geometry"/>
                </mxCell>
                <mxCell id="467" value="(bool) PXE" style="text;strokeColor=#A639AD;fillColor=#D446BC;align=left;verticalAlign=middle;spacingLeft=4;spacingRight=4;overflow=hidden;points=[[0,0.5],[1,0.5]];portConstraint=eastwest;rotatable=0;whiteSpace=wrap;html=1;fontColor=#000000;gradientColor=none;" parent="461" vertex="1">
                    <mxGeometry y="180" width="130" height="30" as="geometry"/>
                </mxCell>
                <mxCell id="532" value="(bool) PXE" style="text;strokeColor=#A639AD;fillColor=#D446BC;align=left;verticalAlign=middle;spacingLeft=4;spacingRight=4;overflow=hidden;points=[[0,0.5],[1,0.5]];portConstraint=eastwest;rotatable=0;whiteSpace=wrap;html=1;fontColor=#000000;gradientColor=none;" parent="461" vertex="1">
                    <mxGeometry y="210" width="130" height="30" as="geometry"/>
                </mxCell>
                <mxCell id="468" style="edgeStyle=orthogonalEdgeStyle;html=1;exitX=0;exitY=0.5;exitDx=0;exitDy=0;entryX=0.5;entryY=0;entryDx=0;entryDy=0;endArrow=none;endFill=0;dashed=1;dashPattern=1 1;strokeWidth=2;strokeColor=#FFFFFF;shadow=1;" parent="1" source="538" target="457" edge="1">
                    <mxGeometry relative="1" as="geometry">
                        <Array as="points">
                            <mxPoint x="690" y="-515"/>
                            <mxPoint x="690" y="-670"/>
                            <mxPoint x="1335" y="-670"/>
                        </Array>
                    </mxGeometry>
                </mxCell>
                <mxCell id="507" value="DevicesToGroups" style="shape=table;startSize=30;container=1;collapsible=1;childLayout=tableLayout;fixedRows=1;rowLines=0;fontStyle=1;align=center;resizeLast=1;strokeColor=#006EAF;fontSize=14;fillColor=#1ba1e2;fontColor=#ffffff;" parent="1" vertex="1">
                    <mxGeometry x="1050" y="-180" width="180" height="90" as="geometry"/>
                </mxCell>
                <mxCell id="508" value="" style="shape=tableRow;horizontal=0;startSize=0;swimlaneHead=0;swimlaneBody=0;fillColor=#1ba1e2;collapsible=0;dropTarget=0;points=[[0,0.5],[1,0.5]];portConstraint=eastwest;top=0;left=0;right=0;bottom=1;strokeColor=#006EAF;fontSize=14;fontColor=#ffffff;" parent="507" vertex="1">
                    <mxGeometry y="30" width="180" height="30" as="geometry"/>
                </mxCell>
                <mxCell id="509" value="FK" style="shape=partialRectangle;connectable=0;fillColor=#1ba1e2;top=0;left=0;bottom=0;right=0;fontStyle=1;overflow=hidden;strokeColor=#006EAF;fontSize=14;fontColor=#ffffff;" parent="508" vertex="1">
                    <mxGeometry width="30" height="30" as="geometry">
                        <mxRectangle width="30" height="30" as="alternateBounds"/>
                    </mxGeometry>
                </mxCell>
                <mxCell id="510" value="Device" style="shape=partialRectangle;connectable=0;fillColor=#1ba1e2;top=0;left=0;bottom=0;right=0;align=left;spacingLeft=6;fontStyle=5;overflow=hidden;strokeColor=#006EAF;fontSize=14;fontColor=#ffffff;" parent="508" vertex="1">
                    <mxGeometry x="30" width="150" height="30" as="geometry">
                        <mxRectangle width="150" height="30" as="alternateBounds"/>
                    </mxGeometry>
                </mxCell>
                <mxCell id="511" value="" style="shape=tableRow;horizontal=0;startSize=0;swimlaneHead=0;swimlaneBody=0;fillColor=#1ba1e2;collapsible=0;dropTarget=0;points=[[0,0.5],[1,0.5]];portConstraint=eastwest;top=0;left=0;right=0;bottom=0;strokeColor=#006EAF;fontSize=14;fontColor=#ffffff;" parent="507" vertex="1">
                    <mxGeometry y="60" width="180" height="30" as="geometry"/>
                </mxCell>
                <mxCell id="512" value="FK" style="shape=partialRectangle;connectable=0;fillColor=#1ba1e2;top=0;left=0;bottom=0;right=0;editable=1;overflow=hidden;strokeColor=#006EAF;fontSize=14;fontColor=#ffffff;" parent="511" vertex="1">
                    <mxGeometry width="30" height="30" as="geometry">
                        <mxRectangle width="30" height="30" as="alternateBounds"/>
                    </mxGeometry>
                </mxCell>
                <mxCell id="513" value="Group" style="shape=partialRectangle;connectable=0;fillColor=#1ba1e2;top=0;left=0;bottom=0;right=0;align=left;spacingLeft=6;overflow=hidden;strokeColor=#006EAF;fontSize=14;fontColor=#ffffff;" parent="511" vertex="1">
                    <mxGeometry x="30" width="150" height="30" as="geometry">
                        <mxRectangle width="150" height="30" as="alternateBounds"/>
                    </mxGeometry>
                </mxCell>
                <mxCell id="527" style="edgeStyle=orthogonalEdgeStyle;html=1;exitX=1;exitY=0.5;exitDx=0;exitDy=0;entryX=0;entryY=0.5;entryDx=0;entryDy=0;shadow=1;strokeColor=#0A9FCC;strokeWidth=2;fontColor=#FAF4F4;endArrow=block;endFill=1;jumpSize=6;startArrow=block;startFill=1;" parent="1" source="391" target="508" edge="1">
                    <mxGeometry relative="1" as="geometry">
                        <mxPoint x="890" y="-210" as="sourcePoint"/>
                        <mxPoint x="890" y="-130" as="targetPoint"/>
                        <Array as="points">
                            <mxPoint x="1020" y="-95"/>
                            <mxPoint x="1020" y="-135"/>
                        </Array>
                    </mxGeometry>
                </mxCell>
                <mxCell id="530" style="edgeStyle=orthogonalEdgeStyle;html=1;entryX=0;entryY=0.5;entryDx=0;entryDy=0;shadow=1;strokeColor=#0A9FCC;strokeWidth=2;fontColor=#FAF4F4;endArrow=block;endFill=1;jumpSize=6;startArrow=block;startFill=1;exitX=1;exitY=0.5;exitDx=0;exitDy=0;" parent="1" source="511" target="333" edge="1">
                    <mxGeometry relative="1" as="geometry">
                        <mxPoint x="1250" y="-150" as="sourcePoint"/>
                        <mxPoint x="1320" y="-105" as="targetPoint"/>
                        <Array as="points">
                            <mxPoint x="1240" y="-105"/>
                            <mxPoint x="1240" y="-105"/>
                        </Array>
                    </mxGeometry>
                </mxCell>
                <mxCell id="540" value="ScheduleTasks Class" style="rounded=0;whiteSpace=wrap;html=1;fillColor=#fa6800;strokeColor=#C73500;verticalAlign=top;fontColor=#000000;" parent="1" vertex="1">
                    <mxGeometry x="710" y="-1000" width="330" height="290" as="geometry"/>
                </mxCell>
                <mxCell id="541" value="Runs Task" style="rounded=0;whiteSpace=wrap;html=1;fillColor=#e51400;fontColor=#ffffff;strokeColor=#B20000;align=left;verticalAlign=top;" parent="1" vertex="1">
                    <mxGeometry x="720" y="-970" width="310" height="30" as="geometry"/>
                </mxCell>
                <mxCell id="542" value="Methods" style="swimlane;fontStyle=0;childLayout=stackLayout;horizontal=1;startSize=30;horizontalStack=0;resizeParent=1;resizeParentMax=0;resizeLast=0;collapsible=1;marginBottom=0;whiteSpace=wrap;html=1;strokeColor=#B09500;fillColor=#F7BE00;fontColor=#000000;fontSize=14;" parent="1" vertex="1">
                    <mxGeometry x="880" y="-930" width="150" height="180" as="geometry"/>
                </mxCell>
                <mxCell id="543" value="AddNewTask" style="text;strokeColor=#B09500;fillColor=#F7BE00;align=left;verticalAlign=middle;spacingLeft=4;spacingRight=4;overflow=hidden;points=[[0,0.5],[1,0.5]];portConstraint=eastwest;rotatable=0;whiteSpace=wrap;html=1;fontColor=#000000;" parent="542" vertex="1">
                    <mxGeometry y="30" width="150" height="30" as="geometry"/>
                </mxCell>
                <mxCell id="544" value="RemoveTask" style="text;strokeColor=#B09500;fillColor=#F7BE00;align=left;verticalAlign=middle;spacingLeft=4;spacingRight=4;overflow=hidden;points=[[0,0.5],[1,0.5]];portConstraint=eastwest;rotatable=0;whiteSpace=wrap;html=1;fontColor=#000000;" parent="542" vertex="1">
                    <mxGeometry y="60" width="150" height="30" as="geometry"/>
                </mxCell>
                <mxCell id="550" value="PauseTask" style="text;strokeColor=#B09500;fillColor=#F7BE00;align=left;verticalAlign=middle;spacingLeft=4;spacingRight=4;overflow=hidden;points=[[0,0.5],[1,0.5]];portConstraint=eastwest;rotatable=0;whiteSpace=wrap;html=1;fontColor=#000000;" parent="542" vertex="1">
                    <mxGeometry y="90" width="150" height="30" as="geometry"/>
                </mxCell>
                <mxCell id="551" value="RunTask" style="text;strokeColor=#B09500;fillColor=#F7BE00;align=left;verticalAlign=middle;spacingLeft=4;spacingRight=4;overflow=hidden;points=[[0,0.5],[1,0.5]];portConstraint=eastwest;rotatable=0;whiteSpace=wrap;html=1;fontColor=#000000;" parent="542" vertex="1">
                    <mxGeometry y="120" width="150" height="30" as="geometry"/>
                </mxCell>
                <mxCell id="552" value="Timer" style="text;strokeColor=#B09500;fillColor=#F7BE00;align=left;verticalAlign=middle;spacingLeft=4;spacingRight=4;overflow=hidden;points=[[0,0.5],[1,0.5]];portConstraint=eastwest;rotatable=0;whiteSpace=wrap;html=1;fontColor=#000000;" parent="542" vertex="1">
                    <mxGeometry y="150" width="150" height="30" as="geometry"/>
                </mxCell>
                <mxCell id="545" value="Properties" style="swimlane;fontStyle=0;childLayout=stackLayout;horizontal=1;startSize=30;horizontalStack=0;resizeParent=1;resizeParentMax=0;resizeLast=0;collapsible=1;marginBottom=0;whiteSpace=wrap;html=1;strokeColor=#A639AD;fillColor=#D446BC;fontColor=#000000;fontSize=14;gradientColor=none;" parent="1" vertex="1">
                    <mxGeometry x="720" y="-930" width="150" height="120" as="geometry"/>
                </mxCell>
                <mxCell id="546" value="(Obj List) Tasks" style="text;strokeColor=#A639AD;fillColor=#D446BC;align=left;verticalAlign=middle;spacingLeft=4;spacingRight=4;overflow=hidden;points=[[0,0.5],[1,0.5]];portConstraint=eastwest;rotatable=0;whiteSpace=wrap;html=1;fontColor=#000000;gradientColor=none;" parent="545" vertex="1">
                    <mxGeometry y="30" width="150" height="30" as="geometry"/>
                </mxCell>
                <mxCell id="547" value="(string)&amp;nbsp; setting1" style="text;strokeColor=#A639AD;fillColor=#D446BC;align=left;verticalAlign=middle;spacingLeft=4;spacingRight=4;overflow=hidden;points=[[0,0.5],[1,0.5]];portConstraint=eastwest;rotatable=0;whiteSpace=wrap;html=1;fontColor=#000000;gradientColor=none;" parent="545" vertex="1">
                    <mxGeometry y="60" width="150" height="30" as="geometry"/>
                </mxCell>
                <mxCell id="548" value="(string)&amp;nbsp; setting2" style="text;strokeColor=#A639AD;fillColor=#D446BC;align=left;verticalAlign=middle;spacingLeft=4;spacingRight=4;overflow=hidden;points=[[0,0.5],[1,0.5]];portConstraint=eastwest;rotatable=0;whiteSpace=wrap;html=1;fontColor=#000000;gradientColor=none;" parent="545" vertex="1">
                    <mxGeometry y="90" width="150" height="30" as="geometry"/>
                </mxCell>
                <mxCell id="553" style="edgeStyle=orthogonalEdgeStyle;html=1;exitX=1;exitY=0.5;exitDx=0;exitDy=0;shadow=1;strokeColor=#FFFFFF;strokeWidth=2;endArrow=block;endFill=1;entryX=0.996;entryY=0.16;entryDx=0;entryDy=0;entryPerimeter=0;" parent="1" source="551" target="428" edge="1">
                    <mxGeometry relative="1" as="geometry">
                        <Array as="points">
                            <mxPoint x="1060" y="-795"/>
                            <mxPoint x="1060" y="-546"/>
                        </Array>
                    </mxGeometry>
                </mxCell>
                <mxCell id="558" value="Tags" style="shape=table;startSize=30;container=1;collapsible=1;childLayout=tableLayout;fixedRows=1;rowLines=0;fontStyle=1;align=center;resizeLast=1;strokeColor=#006EAF;fontSize=14;fillColor=#1ba1e2;fontColor=#ffffff;" parent="1" vertex="1">
                    <mxGeometry x="1310" y="130" width="180" height="110" as="geometry"/>
                </mxCell>
                <mxCell id="559" value="" style="shape=tableRow;horizontal=0;startSize=0;swimlaneHead=0;swimlaneBody=0;fillColor=#1ba1e2;collapsible=0;dropTarget=0;points=[[0,0.5],[1,0.5]];portConstraint=eastwest;top=0;left=0;right=0;bottom=1;strokeColor=#006EAF;fontSize=14;fontColor=#ffffff;" parent="558" vertex="1">
                    <mxGeometry y="30" width="180" height="50" as="geometry"/>
                </mxCell>
                <mxCell id="560" value="PK" style="shape=partialRectangle;connectable=0;fillColor=#1ba1e2;top=0;left=0;bottom=0;right=0;fontStyle=1;overflow=hidden;strokeColor=#006EAF;fontSize=14;fontColor=#ffffff;" parent="559" vertex="1">
                    <mxGeometry width="30" height="50" as="geometry">
                        <mxRectangle width="30" height="50" as="alternateBounds"/>
                    </mxGeometry>
                </mxCell>
                <mxCell id="561" value="UniqueID" style="shape=partialRectangle;connectable=0;fillColor=#1ba1e2;top=0;left=0;bottom=0;right=0;align=left;spacingLeft=6;fontStyle=5;overflow=hidden;strokeColor=#006EAF;fontSize=14;fontColor=#ffffff;" parent="559" vertex="1">
                    <mxGeometry x="30" width="150" height="50" as="geometry">
                        <mxRectangle width="150" height="50" as="alternateBounds"/>
                    </mxGeometry>
                </mxCell>
                <mxCell id="562" value="" style="shape=tableRow;horizontal=0;startSize=0;swimlaneHead=0;swimlaneBody=0;fillColor=#1ba1e2;collapsible=0;dropTarget=0;points=[[0,0.5],[1,0.5]];portConstraint=eastwest;top=0;left=0;right=0;bottom=0;strokeColor=#006EAF;fontSize=14;fontColor=#ffffff;" parent="558" vertex="1">
                    <mxGeometry y="80" width="180" height="30" as="geometry"/>
                </mxCell>
                <mxCell id="563" value="" style="shape=partialRectangle;connectable=0;fillColor=#1ba1e2;top=0;left=0;bottom=0;right=0;editable=1;overflow=hidden;strokeColor=#006EAF;fontSize=14;fontColor=#ffffff;" parent="562" vertex="1">
                    <mxGeometry width="30" height="30" as="geometry">
                        <mxRectangle width="30" height="30" as="alternateBounds"/>
                    </mxGeometry>
                </mxCell>
                <mxCell id="564" value="Text" style="shape=partialRectangle;connectable=0;fillColor=#1ba1e2;top=0;left=0;bottom=0;right=0;align=left;spacingLeft=6;overflow=hidden;strokeColor=#006EAF;fontSize=14;fontColor=#ffffff;" parent="562" vertex="1">
                    <mxGeometry x="30" width="150" height="30" as="geometry">
                        <mxRectangle width="150" height="30" as="alternateBounds"/>
                    </mxGeometry>
                </mxCell>
                <mxCell id="574" value="DevicesToTags" style="shape=table;startSize=30;container=1;collapsible=1;childLayout=tableLayout;fixedRows=1;rowLines=0;fontStyle=1;align=center;resizeLast=1;strokeColor=#006EAF;fontSize=14;fillColor=#1ba1e2;fontColor=#ffffff;" parent="1" vertex="1">
                    <mxGeometry x="1050" y="110" width="180" height="90" as="geometry"/>
                </mxCell>
                <mxCell id="575" value="" style="shape=tableRow;horizontal=0;startSize=0;swimlaneHead=0;swimlaneBody=0;fillColor=#1ba1e2;collapsible=0;dropTarget=0;points=[[0,0.5],[1,0.5]];portConstraint=eastwest;top=0;left=0;right=0;bottom=1;strokeColor=#006EAF;fontSize=14;fontColor=#ffffff;" parent="574" vertex="1">
                    <mxGeometry y="30" width="180" height="30" as="geometry"/>
                </mxCell>
                <mxCell id="576" value="FK" style="shape=partialRectangle;connectable=0;fillColor=#1ba1e2;top=0;left=0;bottom=0;right=0;fontStyle=1;overflow=hidden;strokeColor=#006EAF;fontSize=14;fontColor=#ffffff;" parent="575" vertex="1">
                    <mxGeometry width="30" height="30" as="geometry">
                        <mxRectangle width="30" height="30" as="alternateBounds"/>
                    </mxGeometry>
                </mxCell>
                <mxCell id="577" value="Device" style="shape=partialRectangle;connectable=0;fillColor=#1ba1e2;top=0;left=0;bottom=0;right=0;align=left;spacingLeft=6;fontStyle=5;overflow=hidden;strokeColor=#006EAF;fontSize=14;fontColor=#ffffff;" parent="575" vertex="1">
                    <mxGeometry x="30" width="150" height="30" as="geometry">
                        <mxRectangle width="150" height="30" as="alternateBounds"/>
                    </mxGeometry>
                </mxCell>
                <mxCell id="578" value="" style="shape=tableRow;horizontal=0;startSize=0;swimlaneHead=0;swimlaneBody=0;fillColor=#1ba1e2;collapsible=0;dropTarget=0;points=[[0,0.5],[1,0.5]];portConstraint=eastwest;top=0;left=0;right=0;bottom=0;strokeColor=#006EAF;fontSize=14;fontColor=#ffffff;" parent="574" vertex="1">
                    <mxGeometry y="60" width="180" height="30" as="geometry"/>
                </mxCell>
                <mxCell id="579" value="FK" style="shape=partialRectangle;connectable=0;fillColor=#1ba1e2;top=0;left=0;bottom=0;right=0;editable=1;overflow=hidden;strokeColor=#006EAF;fontSize=14;fontColor=#ffffff;" parent="578" vertex="1">
                    <mxGeometry width="30" height="30" as="geometry">
                        <mxRectangle width="30" height="30" as="alternateBounds"/>
                    </mxGeometry>
                </mxCell>
                <mxCell id="580" value="Tag" style="shape=partialRectangle;connectable=0;fillColor=#1ba1e2;top=0;left=0;bottom=0;right=0;align=left;spacingLeft=6;overflow=hidden;strokeColor=#006EAF;fontSize=14;fontColor=#ffffff;" parent="578" vertex="1">
                    <mxGeometry x="30" width="150" height="30" as="geometry">
                        <mxRectangle width="150" height="30" as="alternateBounds"/>
                    </mxGeometry>
                </mxCell>
                <mxCell id="581" style="edgeStyle=orthogonalEdgeStyle;html=1;entryX=0;entryY=0.5;entryDx=0;entryDy=0;shadow=1;strokeColor=#0A9FCC;strokeWidth=2;fontColor=#FAF4F4;endArrow=block;endFill=1;jumpSize=6;startArrow=block;startFill=1;exitX=1;exitY=0.5;exitDx=0;exitDy=0;" parent="1" source="578" target="559" edge="1">
                    <mxGeometry relative="1" as="geometry">
                        <mxPoint x="1260" y="140" as="sourcePoint"/>
                        <mxPoint x="1330" y="185" as="targetPoint"/>
                        <Array as="points">
                            <mxPoint x="1250" y="185"/>
                            <mxPoint x="1250" y="185"/>
                        </Array>
                    </mxGeometry>
                </mxCell>
                <mxCell id="583" style="edgeStyle=orthogonalEdgeStyle;html=1;entryX=0;entryY=0.5;entryDx=0;entryDy=0;shadow=1;strokeColor=#0A9FCC;strokeWidth=2;fontColor=#FAF4F4;endArrow=block;endFill=1;jumpSize=6;startArrow=block;startFill=1;exitX=1;exitY=0.5;exitDx=0;exitDy=0;" parent="1" source="391" target="574" edge="1">
                    <mxGeometry relative="1" as="geometry">
                        <mxPoint x="870" y="262.5" as="sourcePoint"/>
                        <mxPoint x="950" y="262.5" as="targetPoint"/>
                        <Array as="points">
                            <mxPoint x="1020" y="-95"/>
                            <mxPoint x="1020" y="155"/>
                        </Array>
                    </mxGeometry>
                </mxCell>
                <mxCell id="592" value="DBContext: Devices" style="rounded=0;whiteSpace=wrap;html=1;fillColor=#1ba1e2;strokeColor=#006EAF;verticalAlign=top;fontColor=#ffffff;" parent="1" vertex="1">
                    <mxGeometry x="430" y="-260" width="90" height="50" as="geometry"/>
                </mxCell>
                <mxCell id="594" value="GroupsUi Controller" style="rounded=0;whiteSpace=wrap;html=1;fillColor=#fa6800;strokeColor=#C73500;verticalAlign=top;fontColor=#000000;" parent="1" vertex="1">
                    <mxGeometry x="50" y="-350" width="330" height="360" as="geometry"/>
                </mxCell>
                <mxCell id="595" value="" style="rounded=0;whiteSpace=wrap;html=1;fillColor=#e51400;fontColor=#ffffff;strokeColor=#B20000;align=left;verticalAlign=top;" parent="1" vertex="1">
                    <mxGeometry x="60" y="-320" width="310" height="30" as="geometry"/>
                </mxCell>
                <mxCell id="596" value="Methods" style="swimlane;fontStyle=0;childLayout=stackLayout;horizontal=1;startSize=30;horizontalStack=0;resizeParent=1;resizeParentMax=0;resizeLast=0;collapsible=1;marginBottom=0;whiteSpace=wrap;html=1;strokeColor=#B09500;fillColor=#F7BE00;fontColor=#000000;fontSize=14;" parent="1" vertex="1">
                    <mxGeometry x="220" y="-280" width="150" height="270" as="geometry"/>
                </mxCell>
                <mxCell id="597" value="GetDevices" style="text;strokeColor=#B09500;fillColor=#F7BE00;align=left;verticalAlign=middle;spacingLeft=4;spacingRight=4;overflow=hidden;points=[[0,0.5],[1,0.5]];portConstraint=eastwest;rotatable=0;whiteSpace=wrap;html=1;fontColor=#000000;" parent="596" vertex="1">
                    <mxGeometry y="30" width="150" height="30" as="geometry"/>
                </mxCell>
                <mxCell id="612" value="GetGroups" style="text;strokeColor=#B09500;fillColor=#F7BE00;align=left;verticalAlign=middle;spacingLeft=4;spacingRight=4;overflow=hidden;points=[[0,0.5],[1,0.5]];portConstraint=eastwest;rotatable=0;whiteSpace=wrap;html=1;fontColor=#000000;" parent="596" vertex="1">
                    <mxGeometry y="60" width="150" height="30" as="geometry"/>
                </mxCell>
                <mxCell id="613" value="AddDervices" style="text;strokeColor=#B09500;fillColor=#F7BE00;align=left;verticalAlign=middle;spacingLeft=4;spacingRight=4;overflow=hidden;points=[[0,0.5],[1,0.5]];portConstraint=eastwest;rotatable=0;whiteSpace=wrap;html=1;fontColor=#000000;" parent="596" vertex="1">
                    <mxGeometry y="90" width="150" height="30" as="geometry"/>
                </mxCell>
                <mxCell id="614" value="AddGroup" style="text;strokeColor=#B09500;fillColor=#F7BE00;align=left;verticalAlign=middle;spacingLeft=4;spacingRight=4;overflow=hidden;points=[[0,0.5],[1,0.5]];portConstraint=eastwest;rotatable=0;whiteSpace=wrap;html=1;fontColor=#000000;" parent="596" vertex="1">
                    <mxGeometry y="120" width="150" height="30" as="geometry"/>
                </mxCell>
                <mxCell id="615" value="DeleteGroup" style="text;strokeColor=#B09500;fillColor=#F7BE00;align=left;verticalAlign=middle;spacingLeft=4;spacingRight=4;overflow=hidden;points=[[0,0.5],[1,0.5]];portConstraint=eastwest;rotatable=0;whiteSpace=wrap;html=1;fontColor=#000000;" parent="596" vertex="1">
                    <mxGeometry y="150" width="150" height="30" as="geometry"/>
                </mxCell>
                <mxCell id="616" value="EditGroup" style="text;strokeColor=#B09500;fillColor=#F7BE00;align=left;verticalAlign=middle;spacingLeft=4;spacingRight=4;overflow=hidden;points=[[0,0.5],[1,0.5]];portConstraint=eastwest;rotatable=0;whiteSpace=wrap;html=1;fontColor=#000000;" parent="596" vertex="1">
                    <mxGeometry y="180" width="150" height="30" as="geometry"/>
                </mxCell>
                <mxCell id="617" value="EditDevice" style="text;strokeColor=#B09500;fillColor=#F7BE00;align=left;verticalAlign=middle;spacingLeft=4;spacingRight=4;overflow=hidden;points=[[0,0.5],[1,0.5]];portConstraint=eastwest;rotatable=0;whiteSpace=wrap;html=1;fontColor=#000000;" parent="596" vertex="1">
                    <mxGeometry y="210" width="150" height="30" as="geometry"/>
                </mxCell>
                <mxCell id="618" value="SaveChanges" style="text;strokeColor=#B09500;fillColor=#F7BE00;align=left;verticalAlign=middle;spacingLeft=4;spacingRight=4;overflow=hidden;points=[[0,0.5],[1,0.5]];portConstraint=eastwest;rotatable=0;whiteSpace=wrap;html=1;fontColor=#000000;" parent="596" vertex="1">
                    <mxGeometry y="240" width="150" height="30" as="geometry"/>
                </mxCell>
                <mxCell id="602" value="Properties" style="swimlane;fontStyle=0;childLayout=stackLayout;horizontal=1;startSize=30;horizontalStack=0;resizeParent=1;resizeParentMax=0;resizeLast=0;collapsible=1;marginBottom=0;whiteSpace=wrap;html=1;strokeColor=#A639AD;fillColor=#D446BC;fontColor=#000000;fontSize=14;gradientColor=none;" parent="1" vertex="1">
                    <mxGeometry x="60" y="-280" width="150" height="60" as="geometry"/>
                </mxCell>
                <mxCell id="603" value="" style="text;strokeColor=#A639AD;fillColor=#D446BC;align=left;verticalAlign=middle;spacingLeft=4;spacingRight=4;overflow=hidden;points=[[0,0.5],[1,0.5]];portConstraint=eastwest;rotatable=0;whiteSpace=wrap;html=1;fontColor=#000000;gradientColor=none;" parent="602" vertex="1">
                    <mxGeometry y="30" width="150" height="30" as="geometry"/>
                </mxCell>
                <mxCell id="606" value="Class" style="rounded=0;whiteSpace=wrap;html=1;fillColor=#fa6800;strokeColor=#C73500;verticalAlign=top;fontColor=#000000;" parent="1" vertex="1">
                    <mxGeometry x="310" y="-2140" width="330" height="290" as="geometry"/>
                </mxCell>
                <mxCell id="607" value="" style="rounded=0;whiteSpace=wrap;html=1;fillColor=#e51400;fontColor=#ffffff;strokeColor=#B20000;align=left;verticalAlign=top;" parent="1" vertex="1">
                    <mxGeometry x="320" y="-2110" width="310" height="30" as="geometry"/>
                </mxCell>
                <mxCell id="608" value="Methods" style="swimlane;fontStyle=0;childLayout=stackLayout;horizontal=1;startSize=30;horizontalStack=0;resizeParent=1;resizeParentMax=0;resizeLast=0;collapsible=1;marginBottom=0;whiteSpace=wrap;html=1;strokeColor=#B09500;fillColor=#F7BE00;fontColor=#000000;fontSize=14;" parent="1" vertex="1">
                    <mxGeometry x="480" y="-2070" width="150" height="60" as="geometry"/>
                </mxCell>
                <mxCell id="609" value="" style="text;strokeColor=#B09500;fillColor=#F7BE00;align=left;verticalAlign=middle;spacingLeft=4;spacingRight=4;overflow=hidden;points=[[0,0.5],[1,0.5]];portConstraint=eastwest;rotatable=0;whiteSpace=wrap;html=1;fontColor=#000000;" parent="608" vertex="1">
                    <mxGeometry y="30" width="150" height="30" as="geometry"/>
                </mxCell>
                <mxCell id="610" value="Properties" style="swimlane;fontStyle=0;childLayout=stackLayout;horizontal=1;startSize=30;horizontalStack=0;resizeParent=1;resizeParentMax=0;resizeLast=0;collapsible=1;marginBottom=0;whiteSpace=wrap;html=1;strokeColor=#A639AD;fillColor=#D446BC;fontColor=#000000;fontSize=14;gradientColor=none;" parent="1" vertex="1">
                    <mxGeometry x="320" y="-2070" width="150" height="60" as="geometry"/>
                </mxCell>
                <mxCell id="611" value="" style="text;strokeColor=#A639AD;fillColor=#D446BC;align=left;verticalAlign=middle;spacingLeft=4;spacingRight=4;overflow=hidden;points=[[0,0.5],[1,0.5]];portConstraint=eastwest;rotatable=0;whiteSpace=wrap;html=1;fontColor=#000000;gradientColor=none;" parent="610" vertex="1">
                    <mxGeometry y="30" width="150" height="30" as="geometry"/>
                </mxCell>
                <mxCell id="619" style="edgeStyle=orthogonalEdgeStyle;html=1;exitX=1;exitY=0.5;exitDx=0;exitDy=0;entryX=0;entryY=0.5;entryDx=0;entryDy=0;shadow=1;strokeColor=#0A9FCC;strokeWidth=2;fontColor=#FAF4F4;endArrow=none;endFill=0;jumpSize=6;startArrow=block;startFill=1;" parent="1" source="597" target="592" edge="1">
                    <mxGeometry relative="1" as="geometry">
                        <mxPoint x="645" y="-120" as="sourcePoint"/>
                        <mxPoint x="645" y="-40" as="targetPoint"/>
                        <Array as="points">
                            <mxPoint x="400" y="-235"/>
                            <mxPoint x="400" y="-235"/>
                        </Array>
                    </mxGeometry>
                </mxCell>
                <mxCell id="623" style="edgeStyle=orthogonalEdgeStyle;html=1;exitX=1;exitY=0.5;exitDx=0;exitDy=0;shadow=1;strokeColor=#0A9FCC;strokeWidth=2;fontColor=#FAF4F4;endArrow=none;endFill=0;jumpSize=6;startArrow=block;startFill=1;entryX=0;entryY=0.5;entryDx=0;entryDy=0;" parent="1" source="612" target="624" edge="1">
                    <mxGeometry relative="1" as="geometry">
                        <mxPoint x="380" y="-225" as="sourcePoint"/>
                        <mxPoint x="420" y="-170" as="targetPoint"/>
                        <Array as="points">
                            <mxPoint x="400" y="-205"/>
                            <mxPoint x="400" y="-170"/>
                        </Array>
                    </mxGeometry>
                </mxCell>
                <mxCell id="624" value="DBContext: Groups" style="rounded=0;whiteSpace=wrap;html=1;fillColor=#1ba1e2;strokeColor=#006EAF;verticalAlign=top;fontColor=#ffffff;" parent="1" vertex="1">
                    <mxGeometry x="430" y="-195" width="90" height="50" as="geometry"/>
                </mxCell>
                <mxCell id="627" value="DBContext: Devices" style="rounded=0;whiteSpace=wrap;html=1;fillColor=#1ba1e2;strokeColor=#006EAF;verticalAlign=top;fontColor=#ffffff;" vertex="1" parent="1">
                    <mxGeometry x="430" y="390" width="90" height="50" as="geometry"/>
                </mxCell>
                <mxCell id="628" value="BootTask Controller" style="rounded=0;whiteSpace=wrap;html=1;fillColor=#fa6800;strokeColor=#C73500;verticalAlign=top;fontColor=#000000;" vertex="1" parent="1">
                    <mxGeometry x="50" y="300" width="330" height="360" as="geometry"/>
                </mxCell>
                <mxCell id="629" value="" style="rounded=0;whiteSpace=wrap;html=1;fillColor=#e51400;fontColor=#ffffff;strokeColor=#B20000;align=left;verticalAlign=top;" vertex="1" parent="1">
                    <mxGeometry x="60" y="330" width="310" height="30" as="geometry"/>
                </mxCell>
                <mxCell id="630" value="Methods" style="swimlane;fontStyle=0;childLayout=stackLayout;horizontal=1;startSize=30;horizontalStack=0;resizeParent=1;resizeParentMax=0;resizeLast=0;collapsible=1;marginBottom=0;whiteSpace=wrap;html=1;strokeColor=#B09500;fillColor=#F7BE00;fontColor=#000000;fontSize=14;" vertex="1" parent="1">
                    <mxGeometry x="220" y="370" width="150" height="60" as="geometry"/>
                </mxCell>
                <mxCell id="631" value="GetDevices" style="text;strokeColor=#B09500;fillColor=#F7BE00;align=left;verticalAlign=middle;spacingLeft=4;spacingRight=4;overflow=hidden;points=[[0,0.5],[1,0.5]];portConstraint=eastwest;rotatable=0;whiteSpace=wrap;html=1;fontColor=#000000;" vertex="1" parent="630">
                    <mxGeometry y="30" width="150" height="30" as="geometry"/>
                </mxCell>
                <mxCell id="639" value="Properties" style="swimlane;fontStyle=0;childLayout=stackLayout;horizontal=1;startSize=30;horizontalStack=0;resizeParent=1;resizeParentMax=0;resizeLast=0;collapsible=1;marginBottom=0;whiteSpace=wrap;html=1;strokeColor=#A639AD;fillColor=#D446BC;fontColor=#000000;fontSize=14;gradientColor=none;" vertex="1" parent="1">
                    <mxGeometry x="60" y="370" width="150" height="60" as="geometry"/>
                </mxCell>
                <mxCell id="640" value="" style="text;strokeColor=#A639AD;fillColor=#D446BC;align=left;verticalAlign=middle;spacingLeft=4;spacingRight=4;overflow=hidden;points=[[0,0.5],[1,0.5]];portConstraint=eastwest;rotatable=0;whiteSpace=wrap;html=1;fontColor=#000000;gradientColor=none;" vertex="1" parent="639">
                    <mxGeometry y="30" width="150" height="30" as="geometry"/>
                </mxCell>
                <mxCell id="641" style="edgeStyle=orthogonalEdgeStyle;html=1;exitX=1;exitY=0.5;exitDx=0;exitDy=0;entryX=0;entryY=0.5;entryDx=0;entryDy=0;shadow=1;strokeColor=#0A9FCC;strokeWidth=2;fontColor=#FAF4F4;endArrow=none;endFill=0;jumpSize=6;startArrow=block;startFill=1;" edge="1" parent="1" source="631" target="627">
                    <mxGeometry relative="1" as="geometry">
                        <mxPoint x="645" y="530" as="sourcePoint"/>
                        <mxPoint x="645" y="610" as="targetPoint"/>
                        <Array as="points">
                            <mxPoint x="400" y="415"/>
                            <mxPoint x="400" y="415"/>
                        </Array>
                    </mxGeometry>
                </mxCell>
                <mxCell id="642" style="edgeStyle=orthogonalEdgeStyle;html=1;exitX=1;exitY=0.5;exitDx=0;exitDy=0;shadow=1;strokeColor=#0A9FCC;strokeWidth=2;fontColor=#FAF4F4;endArrow=none;endFill=0;jumpSize=6;startArrow=block;startFill=1;entryX=0;entryY=0.5;entryDx=0;entryDy=0;" edge="1" parent="1" target="643">
                    <mxGeometry relative="1" as="geometry">
                        <mxPoint x="370" y="445" as="sourcePoint"/>
                        <mxPoint x="420" y="480" as="targetPoint"/>
                        <Array as="points">
                            <mxPoint x="400" y="445"/>
                            <mxPoint x="400" y="480"/>
                        </Array>
                    </mxGeometry>
                </mxCell>
                <mxCell id="643" value="DBContext: Groups" style="rounded=0;whiteSpace=wrap;html=1;fillColor=#1ba1e2;strokeColor=#006EAF;verticalAlign=top;fontColor=#ffffff;" vertex="1" parent="1">
                    <mxGeometry x="430" y="455" width="90" height="50" as="geometry"/>
                </mxCell>
                <mxCell id="645" value="DBContext: Devices" style="rounded=0;whiteSpace=wrap;html=1;fillColor=#1ba1e2;strokeColor=#006EAF;verticalAlign=top;fontColor=#ffffff;" vertex="1" parent="1">
                    <mxGeometry x="430" y="1030" width="90" height="50" as="geometry"/>
                </mxCell>
                <mxCell id="655" style="edgeStyle=orthogonalEdgeStyle;html=1;exitX=0.5;exitY=0;exitDx=0;exitDy=0;entryX=0.5;entryY=0;entryDx=0;entryDy=0;dashed=1;dashPattern=1 1;strokeWidth=2;endArrow=none;endFill=0;" edge="1" parent="1" source="646" target="86">
                    <mxGeometry relative="1" as="geometry">
                        <Array as="points">
                            <mxPoint x="215" y="910"/>
                            <mxPoint x="-360" y="910"/>
                        </Array>
                    </mxGeometry>
                </mxCell>
                <mxCell id="646" value="BootSets Controller" style="rounded=0;whiteSpace=wrap;html=1;fillColor=#fa6800;strokeColor=#C73500;verticalAlign=top;fontColor=#000000;" vertex="1" parent="1">
                    <mxGeometry x="50" y="940" width="330" height="360" as="geometry"/>
                </mxCell>
                <mxCell id="647" value="" style="rounded=0;whiteSpace=wrap;html=1;fillColor=#e51400;fontColor=#ffffff;strokeColor=#B20000;align=left;verticalAlign=top;" vertex="1" parent="1">
                    <mxGeometry x="60" y="970" width="310" height="30" as="geometry"/>
                </mxCell>
                <mxCell id="648" value="Methods" style="swimlane;fontStyle=0;childLayout=stackLayout;horizontal=1;startSize=30;horizontalStack=0;resizeParent=1;resizeParentMax=0;resizeLast=0;collapsible=1;marginBottom=0;whiteSpace=wrap;html=1;strokeColor=#B09500;fillColor=#F7BE00;fontColor=#000000;fontSize=14;" vertex="1" parent="1">
                    <mxGeometry x="220" y="1010" width="150" height="60" as="geometry"/>
                </mxCell>
                <mxCell id="649" value="GetDevices" style="text;strokeColor=#B09500;fillColor=#F7BE00;align=left;verticalAlign=middle;spacingLeft=4;spacingRight=4;overflow=hidden;points=[[0,0.5],[1,0.5]];portConstraint=eastwest;rotatable=0;whiteSpace=wrap;html=1;fontColor=#000000;" vertex="1" parent="648">
                    <mxGeometry y="30" width="150" height="30" as="geometry"/>
                </mxCell>
                <mxCell id="650" value="Properties" style="swimlane;fontStyle=0;childLayout=stackLayout;horizontal=1;startSize=30;horizontalStack=0;resizeParent=1;resizeParentMax=0;resizeLast=0;collapsible=1;marginBottom=0;whiteSpace=wrap;html=1;strokeColor=#A639AD;fillColor=#D446BC;fontColor=#000000;fontSize=14;gradientColor=none;" vertex="1" parent="1">
                    <mxGeometry x="60" y="1010" width="150" height="60" as="geometry"/>
                </mxCell>
                <mxCell id="651" value="" style="text;strokeColor=#A639AD;fillColor=#D446BC;align=left;verticalAlign=middle;spacingLeft=4;spacingRight=4;overflow=hidden;points=[[0,0.5],[1,0.5]];portConstraint=eastwest;rotatable=0;whiteSpace=wrap;html=1;fontColor=#000000;gradientColor=none;" vertex="1" parent="650">
                    <mxGeometry y="30" width="150" height="30" as="geometry"/>
                </mxCell>
                <mxCell id="652" style="edgeStyle=orthogonalEdgeStyle;html=1;exitX=1;exitY=0.5;exitDx=0;exitDy=0;entryX=0;entryY=0.5;entryDx=0;entryDy=0;shadow=1;strokeColor=#0A9FCC;strokeWidth=2;fontColor=#FAF4F4;endArrow=none;endFill=0;jumpSize=6;startArrow=block;startFill=1;" edge="1" parent="1" source="649" target="645">
                    <mxGeometry relative="1" as="geometry">
                        <mxPoint x="645" y="1170" as="sourcePoint"/>
                        <mxPoint x="645" y="1250" as="targetPoint"/>
                        <Array as="points">
                            <mxPoint x="400" y="1055"/>
                            <mxPoint x="400" y="1055"/>
                        </Array>
                    </mxGeometry>
                </mxCell>
                <mxCell id="653" style="edgeStyle=orthogonalEdgeStyle;html=1;exitX=1;exitY=0.5;exitDx=0;exitDy=0;shadow=1;strokeColor=#0A9FCC;strokeWidth=2;fontColor=#FAF4F4;endArrow=none;endFill=0;jumpSize=6;startArrow=block;startFill=1;entryX=0;entryY=0.5;entryDx=0;entryDy=0;" edge="1" parent="1" target="654">
                    <mxGeometry relative="1" as="geometry">
                        <mxPoint x="370" y="1085" as="sourcePoint"/>
                        <mxPoint x="420" y="1120" as="targetPoint"/>
                        <Array as="points">
                            <mxPoint x="400" y="1085"/>
                            <mxPoint x="400" y="1120"/>
                        </Array>
                    </mxGeometry>
                </mxCell>
                <mxCell id="654" value="DBContext: Groups" style="rounded=0;whiteSpace=wrap;html=1;fillColor=#1ba1e2;strokeColor=#006EAF;verticalAlign=top;fontColor=#ffffff;" vertex="1" parent="1">
                    <mxGeometry x="430" y="1095" width="90" height="50" as="geometry"/>
                </mxCell>
                <mxCell id="656" value="Actions: move to group" style="rounded=0;whiteSpace=wrap;html=1;strokeColor=#6F0000;fontColor=#ffffff;fillColor=#a20025;" vertex="1" parent="1">
                    <mxGeometry x="-670" y="460" width="170" height="60" as="geometry"/>
                </mxCell>
                <mxCell id="657" value="Actions: build" style="rounded=0;whiteSpace=wrap;html=1;strokeColor=#6F0000;fontColor=#ffffff;fillColor=#a20025;" vertex="1" parent="1">
                    <mxGeometry x="-440" y="460" width="170" height="60" as="geometry"/>
                </mxCell>
                <mxCell id="673" value="&amp;nbsp;tasks,&amp;nbsp;condition, on error, messages, responses" style="rounded=0;whiteSpace=wrap;html=1;strokeColor=#3700CC;fontColor=#ffffff;fillColor=#6a00ff;" vertex="1" parent="1">
                    <mxGeometry x="-440" y="390" width="170" height="60" as="geometry"/>
                </mxCell>
                <mxCell id="674" value="Task 1" style="rounded=0;whiteSpace=wrap;html=1;fillColor=#a20025;strokeColor=#6F0000;fontColor=#ffffff;" vertex="1" parent="1">
                    <mxGeometry x="-1530" y="360" width="160" height="40" as="geometry"/>
                </mxCell>
                <mxCell id="685" value="" style="edgeStyle=orthogonalEdgeStyle;html=1;exitX=0.5;exitY=1;exitDx=0;exitDy=0;entryX=0.5;entryY=0;entryDx=0;entryDy=0;shadow=1;dashed=1;dashPattern=1 1;strokeWidth=2;endArrow=block;endFill=1;" edge="1" parent="1" source="675" target="682">
                    <mxGeometry relative="1" as="geometry"/>
                </mxCell>
                <mxCell id="744" style="edgeStyle=orthogonalEdgeStyle;html=1;exitX=1;exitY=0.5;exitDx=0;exitDy=0;entryX=0;entryY=0.5;entryDx=0;entryDy=0;shadow=1;dashed=1;dashPattern=1 1;strokeWidth=2;endArrow=block;endFill=1;" edge="1" parent="1" source="675" target="743">
                    <mxGeometry relative="1" as="geometry"/>
                </mxCell>
                <mxCell id="675" value="Response" style="rounded=0;whiteSpace=wrap;html=1;fillColor=#60a917;strokeColor=#2D7600;fontColor=#ffffff;" vertex="1" parent="1">
                    <mxGeometry x="-1370" y="360" width="100" height="40" as="geometry"/>
                </mxCell>
                <mxCell id="676" value="Custom Response" style="rounded=0;whiteSpace=wrap;html=1;fillColor=#6a00ff;strokeColor=#3700CC;fontColor=#ffffff;" vertex="1" parent="1">
                    <mxGeometry x="-1530" y="200" width="160" height="40" as="geometry"/>
                </mxCell>
                <mxCell id="680" style="edgeStyle=orthogonalEdgeStyle;html=1;exitX=0.5;exitY=1;exitDx=0;exitDy=0;entryX=0.5;entryY=0;entryDx=0;entryDy=0;shadow=1;dashed=1;dashPattern=1 1;strokeWidth=2;endArrow=block;endFill=1;" edge="1" parent="1" source="676" target="678">
                    <mxGeometry relative="1" as="geometry"/>
                </mxCell>
                <mxCell id="678" value="Bedingung" style="rounded=0;whiteSpace=wrap;html=1;fillColor=#f0a30a;strokeColor=#BD7000;fontColor=#000000;" vertex="1" parent="1">
                    <mxGeometry x="-1530" y="280" width="160" height="40" as="geometry"/>
                </mxCell>
                <mxCell id="681" value="Ja" style="edgeStyle=orthogonalEdgeStyle;html=1;exitX=0.5;exitY=1;exitDx=0;exitDy=0;entryX=0.5;entryY=0;entryDx=0;entryDy=0;shadow=1;dashed=1;dashPattern=1 1;strokeWidth=2;endArrow=block;endFill=1;" edge="1" parent="1" source="679" target="674">
                    <mxGeometry relative="1" as="geometry"/>
                </mxCell>
                <mxCell id="679" value="ErfÃ¼llt?" style="rounded=0;whiteSpace=wrap;html=1;fillColor=#60a917;strokeColor=#2D7600;fontColor=#ffffff;" vertex="1" parent="1">
                    <mxGeometry x="-1370" y="280" width="100" height="40" as="geometry"/>
                </mxCell>
                <mxCell id="682" value="Bedingung" style="rounded=0;whiteSpace=wrap;html=1;fillColor=#f0a30a;strokeColor=#BD7000;fontColor=#000000;" vertex="1" parent="1">
                    <mxGeometry x="-1530" y="440" width="160" height="40" as="geometry"/>
                </mxCell>
                <mxCell id="729" value="Ja" style="edgeStyle=orthogonalEdgeStyle;html=1;exitX=0.5;exitY=1;exitDx=0;exitDy=0;entryX=0.5;entryY=0;entryDx=0;entryDy=0;shadow=1;dashed=1;dashPattern=1 1;strokeWidth=2;endArrow=block;endFill=1;" edge="1" parent="1" source="683" target="686">
                    <mxGeometry relative="1" as="geometry"/>
                </mxCell>
                <mxCell id="683" value="ErfÃ¼llt?" style="rounded=0;whiteSpace=wrap;html=1;fillColor=#60a917;strokeColor=#2D7600;fontColor=#ffffff;" vertex="1" parent="1">
                    <mxGeometry x="-1370" y="440" width="100" height="40" as="geometry"/>
                </mxCell>
                <mxCell id="686" value="Task 2" style="rounded=0;whiteSpace=wrap;html=1;fillColor=#a20025;strokeColor=#6F0000;fontColor=#ffffff;" vertex="1" parent="1">
                    <mxGeometry x="-1530" y="520" width="160" height="40" as="geometry"/>
                </mxCell>
                <mxCell id="731" style="edgeStyle=orthogonalEdgeStyle;html=1;exitX=0.5;exitY=1;exitDx=0;exitDy=0;shadow=1;dashed=1;dashPattern=1 1;strokeWidth=2;endArrow=block;endFill=1;" edge="1" parent="1" source="687">
                    <mxGeometry relative="1" as="geometry">
                        <mxPoint x="-1450" y="600" as="targetPoint"/>
                        <Array as="points">
                            <mxPoint x="-1320" y="570"/>
                            <mxPoint x="-1450" y="570"/>
                        </Array>
                    </mxGeometry>
                </mxCell>
                <mxCell id="746" style="edgeStyle=orthogonalEdgeStyle;html=1;exitX=1;exitY=0.5;exitDx=0;exitDy=0;entryX=0;entryY=0.5;entryDx=0;entryDy=0;shadow=1;dashed=1;dashPattern=1 1;strokeWidth=2;endArrow=block;endFill=1;" edge="1" parent="1" source="687" target="745">
                    <mxGeometry relative="1" as="geometry"/>
                </mxCell>
                <mxCell id="687" value="Response" style="rounded=0;whiteSpace=wrap;html=1;fillColor=#60a917;strokeColor=#2D7600;fontColor=#ffffff;" vertex="1" parent="1">
                    <mxGeometry x="-1370" y="520" width="100" height="40" as="geometry"/>
                </mxCell>
                <mxCell id="688" value="Task 3" style="rounded=0;whiteSpace=wrap;html=1;fillColor=#a20025;strokeColor=#6F0000;fontColor=#ffffff;" vertex="1" parent="1">
                    <mxGeometry x="-1530" y="680" width="160" height="40" as="geometry"/>
                </mxCell>
                <mxCell id="732" style="edgeStyle=orthogonalEdgeStyle;html=1;exitX=0.5;exitY=1;exitDx=0;exitDy=0;entryX=0.5;entryY=0;entryDx=0;entryDy=0;shadow=1;dashed=1;dashPattern=1 1;strokeWidth=2;endArrow=block;endFill=1;" edge="1" parent="1" source="689" target="710">
                    <mxGeometry relative="1" as="geometry"/>
                </mxCell>
                <mxCell id="689" value="Response" style="rounded=0;whiteSpace=wrap;html=1;fillColor=#60a917;strokeColor=#2D7600;fontColor=#ffffff;" vertex="1" parent="1">
                    <mxGeometry x="-1370" y="680" width="100" height="40" as="geometry"/>
                </mxCell>
                <mxCell id="690" value="Bedingung" style="rounded=0;whiteSpace=wrap;html=1;fillColor=#f0a30a;strokeColor=#BD7000;fontColor=#000000;" vertex="1" parent="1">
                    <mxGeometry x="-1530" y="600" width="160" height="40" as="geometry"/>
                </mxCell>
                <mxCell id="692" value="Get&amp;nbsp;" style="edgeStyle=orthogonalEdgeStyle;html=1;entryX=0.75;entryY=0;entryDx=0;entryDy=0;shadow=1;dashed=1;dashPattern=1 1;strokeWidth=2;endArrow=block;endFill=1;exitX=0;exitY=0.5;exitDx=0;exitDy=0;" edge="1" parent="1" source="705" target="690">
                    <mxGeometry x="-0.3135" relative="1" as="geometry">
                        <mxPoint x="-1220" y="580" as="sourcePoint"/>
                        <Array as="points">
                            <mxPoint x="-1160" y="580"/>
                            <mxPoint x="-1410" y="580"/>
                        </Array>
                        <mxPoint as="offset"/>
                    </mxGeometry>
                </mxCell>
                <mxCell id="709" value="Ja" style="edgeStyle=orthogonalEdgeStyle;html=1;exitX=0.5;exitY=1;exitDx=0;exitDy=0;entryX=0.5;entryY=0;entryDx=0;entryDy=0;shadow=1;dashed=1;dashPattern=1 1;strokeWidth=2;endArrow=block;endFill=1;" edge="1" parent="1" source="693" target="688">
                    <mxGeometry relative="1" as="geometry">
                        <mxPoint as="offset"/>
                    </mxGeometry>
                </mxCell>
                <mxCell id="693" value="ErfÃ¼llt?" style="rounded=0;whiteSpace=wrap;html=1;fillColor=#60a917;strokeColor=#2D7600;fontColor=#ffffff;" vertex="1" parent="1">
                    <mxGeometry x="-1370" y="600" width="100" height="40" as="geometry"/>
                </mxCell>
                <mxCell id="694" value="Custom Response" style="rounded=0;whiteSpace=wrap;html=1;fillColor=#6a00ff;strokeColor=#3700CC;fontColor=#ffffff;" vertex="1" parent="1">
                    <mxGeometry x="-1530" y="840" width="160" height="40" as="geometry"/>
                </mxCell>
                <mxCell id="700" value="Send" style="edgeStyle=orthogonalEdgeStyle;html=1;exitX=1;exitY=0.5;exitDx=0;exitDy=0;entryX=0;entryY=0.5;entryDx=0;entryDy=0;shadow=1;dashed=1;dashPattern=1 1;strokeWidth=2;endArrow=block;endFill=1;" edge="1" parent="1" source="697" target="699">
                    <mxGeometry relative="1" as="geometry"/>
                </mxCell>
                <mxCell id="697" value="Message" style="rounded=0;whiteSpace=wrap;html=1;fillColor=#d80073;strokeColor=#A50040;fontColor=#ffffff;" vertex="1" parent="1">
                    <mxGeometry x="-1370" y="200" width="100" height="40" as="geometry"/>
                </mxCell>
                <mxCell id="699" value="This Tasks Responses Pool" style="rounded=0;whiteSpace=wrap;html=1;fillColor=#1ba1e2;strokeColor=#006EAF;fontColor=#ffffff;" vertex="1" parent="1">
                    <mxGeometry x="-1160" y="205" width="160" height="30" as="geometry"/>
                </mxCell>
                <mxCell id="703" value="Get" style="edgeStyle=orthogonalEdgeStyle;html=1;exitX=0;exitY=0.5;exitDx=0;exitDy=0;entryX=0.75;entryY=0;entryDx=0;entryDy=0;shadow=1;dashed=1;dashPattern=1 1;strokeWidth=2;endArrow=block;endFill=1;" edge="1" parent="1" source="704" target="678">
                    <mxGeometry x="-0.2856" relative="1" as="geometry">
                        <mxPoint x="-1220" y="265" as="sourcePoint"/>
                        <Array as="points">
                            <mxPoint x="-1160" y="260"/>
                            <mxPoint x="-1410" y="260"/>
                        </Array>
                        <mxPoint as="offset"/>
                    </mxGeometry>
                </mxCell>
                <mxCell id="704" value="Responses and Statuses" style="rounded=0;whiteSpace=wrap;html=1;fillColor=#1ba1e2;strokeColor=#006EAF;fontColor=#ffffff;" vertex="1" parent="1">
                    <mxGeometry x="-1160" y="250" width="160" height="30" as="geometry"/>
                </mxCell>
                <mxCell id="705" value="Responses and Statuses" style="rounded=0;whiteSpace=wrap;html=1;fillColor=#1ba1e2;strokeColor=#006EAF;fontColor=#ffffff;" vertex="1" parent="1">
                    <mxGeometry x="-1160" y="570" width="160" height="30" as="geometry"/>
                </mxCell>
                <mxCell id="710" value="Bedingung" style="rounded=0;whiteSpace=wrap;html=1;fillColor=#f0a30a;strokeColor=#BD7000;fontColor=#000000;" vertex="1" parent="1">
                    <mxGeometry x="-1530" y="760" width="160" height="40" as="geometry"/>
                </mxCell>
                <mxCell id="725" value="Ja" style="edgeStyle=orthogonalEdgeStyle;html=1;exitX=0.5;exitY=1;exitDx=0;exitDy=0;shadow=1;dashed=1;dashPattern=1 1;strokeWidth=2;endArrow=block;endFill=1;entryX=0.5;entryY=0;entryDx=0;entryDy=0;" edge="1" parent="1" source="711" target="694">
                    <mxGeometry relative="1" as="geometry">
                        <mxPoint x="-1570" y="830" as="targetPoint"/>
                    </mxGeometry>
                </mxCell>
                <mxCell id="735" value="Nein" style="edgeStyle=orthogonalEdgeStyle;html=1;exitX=0.5;exitY=1;exitDx=0;exitDy=0;shadow=1;dashed=1;dashPattern=1 1;strokeWidth=2;endArrow=block;endFill=1;" edge="1" parent="1" source="711" target="719">
                    <mxGeometry relative="1" as="geometry"/>
                </mxCell>
                <mxCell id="711" value="ErfÃ¼llt?" style="rounded=0;whiteSpace=wrap;html=1;fillColor=#60a917;strokeColor=#2D7600;fontColor=#ffffff;" vertex="1" parent="1">
                    <mxGeometry x="-1370" y="760" width="100" height="40" as="geometry"/>
                </mxCell>
                <mxCell id="715" value="Task restart on Task 1" style="rounded=0;whiteSpace=wrap;html=1;fillColor=#a20025;strokeColor=#6F0000;fontColor=#ffffff;" vertex="1" parent="1">
                    <mxGeometry x="-1530" y="920" width="160" height="40" as="geometry"/>
                </mxCell>
                <mxCell id="734" style="edgeStyle=orthogonalEdgeStyle;html=1;exitX=0.5;exitY=1;exitDx=0;exitDy=0;entryX=0;entryY=0.5;entryDx=0;entryDy=0;shadow=1;dashed=1;dashPattern=1 1;strokeWidth=2;endArrow=block;endFill=1;" edge="1" parent="1" source="716" target="674">
                    <mxGeometry relative="1" as="geometry">
                        <Array as="points">
                            <mxPoint x="-1320" y="980"/>
                            <mxPoint x="-1650" y="980"/>
                            <mxPoint x="-1650" y="380"/>
                        </Array>
                    </mxGeometry>
                </mxCell>
                <mxCell id="716" value="Response" style="rounded=0;whiteSpace=wrap;html=1;fillColor=#60a917;strokeColor=#2D7600;fontColor=#ffffff;" vertex="1" parent="1">
                    <mxGeometry x="-1370" y="920" width="100" height="40" as="geometry"/>
                </mxCell>
                <mxCell id="736" style="edgeStyle=orthogonalEdgeStyle;html=1;exitX=0.5;exitY=1;exitDx=0;exitDy=0;entryX=0.5;entryY=0;entryDx=0;entryDy=0;shadow=1;dashed=1;dashPattern=1 1;strokeWidth=2;endArrow=block;endFill=1;" edge="1" parent="1" source="719" target="715">
                    <mxGeometry relative="1" as="geometry">
                        <Array as="points">
                            <mxPoint x="-1160" y="900"/>
                            <mxPoint x="-1450" y="900"/>
                        </Array>
                    </mxGeometry>
                </mxCell>
                <mxCell id="719" value="Custom Response" style="rounded=0;whiteSpace=wrap;html=1;fillColor=#6a00ff;strokeColor=#3700CC;fontColor=#ffffff;" vertex="1" parent="1">
                    <mxGeometry x="-1240" y="840" width="160" height="40" as="geometry"/>
                </mxCell>
                <mxCell id="741" style="edgeStyle=orthogonalEdgeStyle;html=1;exitX=0.5;exitY=1;exitDx=0;exitDy=0;entryX=0.75;entryY=0;entryDx=0;entryDy=0;shadow=1;dashed=1;dashPattern=1 1;strokeWidth=2;endArrow=block;endFill=1;" edge="1" parent="1" target="740">
                    <mxGeometry relative="1" as="geometry">
                        <mxPoint x="-1030" y="880" as="sourcePoint"/>
                    </mxGeometry>
                </mxCell>
                <mxCell id="721" value="Message" style="rounded=0;whiteSpace=wrap;html=1;fillColor=#d80073;strokeColor=#A50040;fontColor=#ffffff;" vertex="1" parent="1">
                    <mxGeometry x="-1020" y="830" width="100" height="40" as="geometry"/>
                </mxCell>
                <mxCell id="742" style="edgeStyle=orthogonalEdgeStyle;html=1;exitX=0.5;exitY=1;exitDx=0;exitDy=0;entryX=0.25;entryY=0;entryDx=0;entryDy=0;shadow=1;dashed=1;dashPattern=1 1;strokeWidth=2;endArrow=block;endFill=1;jumpStyle=gap;" edge="1" parent="1" source="722" target="740">
                    <mxGeometry relative="1" as="geometry">
                        <Array as="points">
                            <mxPoint x="-1320" y="890"/>
                            <mxPoint x="-1110" y="890"/>
                        </Array>
                    </mxGeometry>
                </mxCell>
                <mxCell id="722" value="Message" style="rounded=0;whiteSpace=wrap;html=1;fillColor=#d80073;strokeColor=#A50040;fontColor=#ffffff;" vertex="1" parent="1">
                    <mxGeometry x="-1370" y="840" width="100" height="40" as="geometry"/>
                </mxCell>
                <mxCell id="740" value="This Tasks Responses Pool" style="rounded=0;whiteSpace=wrap;html=1;fillColor=#1ba1e2;strokeColor=#006EAF;fontColor=#ffffff;" vertex="1" parent="1">
                    <mxGeometry x="-1150" y="920" width="160" height="30" as="geometry"/>
                </mxCell>
                <mxCell id="743" value="This Tasks Responses Pool" style="rounded=0;whiteSpace=wrap;html=1;fillColor=#1ba1e2;strokeColor=#006EAF;fontColor=#ffffff;" vertex="1" parent="1">
                    <mxGeometry x="-1160" y="365" width="160" height="30" as="geometry"/>
                </mxCell>
                <mxCell id="745" value="This Tasks Responses Pool" style="rounded=0;whiteSpace=wrap;html=1;fillColor=#1ba1e2;strokeColor=#006EAF;fontColor=#ffffff;" vertex="1" parent="1">
                    <mxGeometry x="-1160" y="525" width="160" height="30" as="geometry"/>
                </mxCell>
            </root>
        </mxGraphModel>
    </diagram>
</mxfile>